<svg width="86" height="95" viewBox="0 0 86 95" fill="none" xmlns="http://www.w3.org/2000/svg">
<path d="M82.0276 47.9528H80.4981V27.1328C82.414 26.4883 83.807 24.6914 83.807 22.5586C83.807 19.8867 81.6335 17.7109 78.9645 17.7109C76.2955 17.7109 74.1221 19.8867 74.1221 22.5586C74.1221 24.6914 75.5151 26.4883 77.431 27.1328V47.9488H74.3835C73.4626 39.8433 66.5755 33.5228 58.237 33.5228L38.0398 33.5267C37.1931 33.5267 36.5103 34.2142 36.5103 35.0579C36.5103 35.9056 37.1971 36.5891 38.0398 36.5891H58.245C65.5223 36.5891 71.4417 42.5149 71.4417 49.8001V63.6201C71.4417 70.9053 65.5223 76.8311 58.245 76.8311L34.0801 76.839C26.8028 76.839 20.8834 70.9132 20.8834 63.628V49.804C20.8834 46.2102 22.2999 42.847 24.8713 40.3392C25.4761 39.7493 25.4878 38.7767 24.8986 38.1712C24.3094 37.5657 23.3378 37.554 22.733 38.1438C20.0093 40.8 18.3471 44.2297 17.9296 47.9524H14.8821V39.4094C14.8821 38.5618 14.1953 37.8782 13.3525 37.8782C12.5058 37.8782 11.823 38.5657 11.823 39.4094V47.9524H10.2934C8.51807 47.9524 7.07812 49.3977 7.07812 51.1712V62.2612C7.07812 64.0385 8.52186 65.48 10.2934 65.48H17.9297C18.8505 73.5855 25.7376 79.906 34.0762 79.906H58.238C66.5767 79.906 73.4595 73.5857 74.3845 65.48H77.432V82.628C77.432 85.7999 74.8528 88.3819 71.6844 88.3819H52.5171L52.5249 87.5772C52.5249 86.171 51.3817 85.0264 49.9769 85.0264H42.3484C40.9438 85.0264 39.8004 86.1709 39.8004 87.5772V92.4483C39.8004 93.8545 40.9437 94.9991 42.3484 94.9991H49.9769C51.3815 94.9991 52.5249 93.8546 52.5249 92.4483V91.4483H71.6922C76.5502 91.4483 80.499 87.4913 80.499 82.6319V65.4799H82.0286C83.8039 65.4799 85.2439 64.0346 85.2439 62.2611V51.1711C85.2439 49.3977 83.8001 47.9523 82.0286 47.9523L82.0276 47.9528ZM78.9684 20.7768C79.9478 20.7768 80.7477 21.5776 80.7477 22.558C80.7477 23.5385 79.9478 24.3392 78.9684 24.3392C77.989 24.3392 77.1891 23.5385 77.1891 22.558C77.1891 21.5776 77.9852 20.7768 78.9684 20.7768ZM10.141 62.2608V51.1708C10.141 51.0849 10.2112 51.0146 10.297 51.0146H17.8201V62.4126H10.297C10.2112 62.4126 10.141 62.3429 10.141 62.2608ZM49.4614 91.9328H42.863V88.089H49.4614V91.9328ZM82.1799 62.2608C82.1799 62.3468 82.1097 62.4171 82.0239 62.4171H74.5008V51.0151H82.0239C82.1097 51.0151 82.1799 51.0854 82.1799 51.1713V62.2608Z" fill="black"/>
<path d="M63.853 51.8867C63.853 47.7773 60.5128 44.4336 56.4079 44.4336C52.3031 44.4336 48.9629 47.7774 48.9629 51.8867C48.9629 55.996 52.3031 59.3398 56.4079 59.3398C60.5128 59.3398 63.853 55.996 63.853 51.8867ZM52.0218 51.8867C52.0218 49.4648 53.9884 47.4961 56.4076 47.4961C58.8268 47.4961 60.7935 49.4649 60.7935 51.8867C60.7935 54.3085 58.8268 56.2773 56.4076 56.2773C53.9884 56.2773 52.0218 54.3085 52.0218 51.8867Z" fill="black"/>
<path d="M35.9177 44.4336C31.8127 44.4336 28.4727 47.7774 28.4727 51.8867C28.4727 55.996 31.8128 59.3398 35.9177 59.3398C40.0225 59.3398 43.3627 55.996 43.3627 51.8867C43.3627 47.7774 40.0225 44.4336 35.9177 44.4336ZM35.9177 56.2776C33.4984 56.2776 31.5318 54.3088 31.5318 51.887C31.5318 49.4652 33.4985 47.4964 35.9177 47.4964C38.3369 47.4964 40.3035 49.4652 40.3035 51.887C40.3035 54.3088 38.3369 56.2776 35.9177 56.2776Z" fill="black"/>
<path d="M36.5107 67.4687C36.5107 68.3164 37.1975 68.9999 38.0403 68.9999H54.2847C55.1314 68.9999 55.8142 68.3124 55.8142 67.4687C55.8142 66.621 55.1275 65.9375 54.2847 65.9375H38.0403C37.1935 65.9375 36.5107 66.6211 36.5107 67.4687Z" fill="black"/>
<path d="M23.13 33.7537L33.0762 40.6716C33.3377 40.8552 33.6459 40.9451 33.9503 40.9451C34.2742 40.9451 34.598 40.8435 34.8673 40.6365C35.394 40.2381 35.6087 39.5506 35.398 38.9217L32.4442 30.117C36.9276 26.9061 39.5692 22.0701 39.5692 16.98C39.5692 7.6167 30.8794 0 20.1992 0C9.51578 0 0.825195 7.6172 0.825195 16.977C0.825195 26.3364 9.51499 33.954 20.1992 33.954C21.1513 33.954 22.1346 33.8876 23.1296 33.7548L23.13 33.7537ZM3.88886 16.9767C3.88886 9.30475 11.2051 3.06265 20.1992 3.06265C29.1933 3.06265 36.5095 9.30485 36.5095 16.9767C36.5095 21.379 34.0044 25.5704 29.8098 28.1956C29.2089 28.5706 28.9435 29.3089 29.1699 29.9847L31.0234 35.5159L24.3744 30.8909C24.1168 30.7113 23.8125 30.6175 23.5003 30.6175C23.4184 30.6175 23.3364 30.6253 23.2545 30.637C22.2126 30.805 21.1825 30.8949 20.1953 30.8949C11.205 30.8909 3.88886 24.6486 3.88886 16.9767Z" fill="#FF4206"/>
<path d="M14.2034 14.9921H26.1984C27.0451 14.9921 27.7279 14.3046 27.7279 13.4609C27.7279 12.6132 27.0412 11.9297 26.1984 11.9297H14.2034C13.3566 11.9297 12.6738 12.6172 12.6738 13.4609C12.6738 14.3085 13.3567 14.9921 14.2034 14.9921Z" fill="#FF4206"/>
<path d="M27.7279 20.4726C27.7279 19.6249 27.0412 18.9414 26.1984 18.9414L14.2034 18.9375C13.3566 18.9375 12.6738 19.625 12.6738 20.4687C12.6738 21.3164 13.3606 21.9999 14.2034 21.9999H26.1984C27.0412 22.0038 27.7279 21.3163 27.7279 20.4726Z" fill="#FF4206"/>
</svg>
