<svg width="60" height="61" viewBox="0 0 60 61" fill="none" xmlns="http://www.w3.org/2000/svg">
<rect y="0.5" width="60" height="60" rx="10" fill="white"/>
<path d="M32.0663 24.5015C32.0682 22.987 31.2685 21.5846 29.9586 20.8061C28.6505 20.0277 27.0252 19.989 25.68 20.7049C24.3349 21.419 23.4665 22.7827 23.396 24.2954C23.3237 25.8063 24.0584 27.2454 25.3294 28.081C23.4665 28.6036 21.8245 29.7133 20.6556 31.2445C19.4867 32.7738 18.8522 34.6417 18.8503 36.5611V37.8806C18.8503 38.061 18.9431 38.2284 19.0971 38.3241C21.6798 39.9418 24.6724 40.8012 27.7285 40.8012C30.7845 40.8012 33.7769 39.9418 36.3617 38.3241C36.5139 38.2284 36.6066 38.061 36.6066 37.8806V36.5611C36.6048 34.6416 35.9703 32.7737 34.8013 31.2445C33.6324 29.7133 31.9904 28.6036 30.1276 28.081C31.3373 27.2859 32.0645 25.9407 32.0663 24.5015ZM24.4462 24.5015C24.4462 23.1838 25.2458 21.9969 26.4723 21.4926C27.6987 20.9884 29.1106 21.2681 30.0494 22.1993C30.9883 23.1305 31.2684 24.531 30.7619 25.7474C30.2535 26.9639 29.0568 27.757 27.7283 27.757C25.9156 27.7552 24.4481 26.2995 24.4462 24.5015ZM35.5527 36.5632V37.5901H35.5508C33.1889 38.998 30.4856 39.7415 27.7283 39.7415C24.9731 39.7415 22.2679 38.998 19.9059 37.5901V36.5614C19.9059 33.7899 21.3957 31.2283 23.8171 29.8422C26.2365 28.4565 29.22 28.4565 31.6395 29.8422C34.0608 31.228 35.5507 33.7897 35.5507 36.5614L35.5527 36.5632ZM14.9969 37.7079C15.2028 37.5625 15.2752 37.292 15.1694 37.0638C14.3215 35.229 13.8855 33.2341 13.8911 31.2153C13.9041 26.5003 16.2845 22.1038 20.2382 19.4867L20.5759 20.7344C20.626 20.9147 20.767 21.0564 20.9489 21.1043C21.1307 21.154 21.3255 21.1025 21.4591 20.9699L27.0496 15.4234C27.1832 15.2909 27.2352 15.0977 27.1869 14.9173C27.1368 14.737 26.994 14.5953 26.8121 14.5474L19.1773 12.5175C18.9936 12.4697 18.8006 12.5212 18.6671 12.6537C18.5335 12.7862 18.4815 12.9795 18.5298 13.1598L19.1699 15.5209C14.8023 18.0569 11.8428 22.4351 11.1379 27.4074C10.5776 31.4782 11.7409 35.2139 14.3255 37.66C14.5092 37.8329 14.7893 37.8532 14.9953 37.7078L14.9969 37.7079ZM12.1841 27.5496C12.8576 22.7629 15.7669 18.5723 20.0322 16.2426C20.2493 16.1267 20.3588 15.8801 20.2938 15.6445L19.7873 13.7637L25.6576 15.3243L21.3586 19.5883L21.0729 18.532H21.0748C21.0321 18.3719 20.9152 18.243 20.7631 18.1823C20.6091 18.1197 20.4365 18.1326 20.2936 18.2173C17.5625 19.8294 15.4065 22.2494 14.1265 25.1353C12.8463 28.0227 12.5067 31.2339 13.1561 34.3222C12.1597 32.2094 11.8223 29.8518 12.1841 27.5496ZM48.9805 32.421V32.4191C48.9322 32.2388 48.7894 32.0989 48.6075 32.0492L46.2252 31.4161C46.1955 26.3958 43.8503 21.6662 39.8614 18.5761C36.5866 16.0586 32.7443 15.1899 29.3173 16.1874C29.0742 16.2592 28.9165 16.4911 28.9406 16.7395C28.9647 16.9898 29.1633 17.1885 29.4156 17.2125C31.4417 17.4002 33.4028 18.0222 35.1638 19.0362C39.2717 21.4066 41.9214 25.6503 42.2292 30.354L40.9731 30.0191C40.7894 29.9712 40.5965 30.0228 40.4629 30.1553C40.3293 30.2878 40.2773 30.481 40.3256 30.6614L42.3721 38.2361C42.4203 38.4164 42.5632 38.5581 42.745 38.606C42.7896 38.6189 42.8359 38.6244 42.8823 38.6244C43.0215 38.6244 43.1569 38.5692 43.2553 38.4716L48.8458 32.9251C48.9794 32.7926 49.0313 32.6012 48.9812 32.419L48.9805 32.421ZM43.1524 37.0899L41.5809 31.2673L42.6459 31.5507V31.5489C42.8055 31.5912 42.9762 31.5581 43.106 31.4568C43.2378 31.3556 43.312 31.201 43.3101 31.0372C43.2675 27.8829 42.234 24.8227 40.3526 22.2791C38.4713 19.7358 35.8384 17.8402 32.818 16.8517C35.1595 17.0523 37.3878 17.9412 39.2174 19.4043C43.0581 22.3746 45.2625 26.9682 45.1642 31.7991C45.1549 32.042 45.3182 32.2591 45.5538 32.3217L47.4537 32.826L43.1524 37.0899ZM40.5252 38.8382C40.2951 38.7351 40.0242 38.8069 39.8777 39.0112C38.6995 40.6564 37.1762 42.0293 35.4117 43.0341C31.289 45.3806 26.2588 45.5333 21.9973 43.4445L22.9176 42.5317C23.0512 42.3992 23.1031 42.2078 23.0549 42.0257C23.0048 41.8453 22.8619 41.7036 22.6801 41.6557L15.0433 39.6277C14.8615 39.5799 14.6667 39.6314 14.5331 39.7639C14.3995 39.8964 14.3476 40.0878 14.3977 40.2681L16.4442 47.8428V47.8447C16.4924 48.025 16.6334 48.1667 16.8152 48.2146C16.9989 48.2643 17.1919 48.2128 17.3255 48.0802L19.0696 46.3503C21.5577 47.7711 24.3818 48.5127 27.2521 48.4998C29.3802 48.5035 31.4898 48.0968 33.462 47.3036C37.2952 45.7485 39.9783 42.8832 40.8204 39.4401C40.8798 39.1953 40.7571 38.9431 40.5252 38.8382ZM33.0628 46.3356C28.5486 48.1484 23.4349 47.7453 19.2679 45.2462C19.0582 45.1173 18.7892 45.1486 18.6148 45.3198L17.2251 46.6982L15.6554 40.8737L21.5257 42.4343L20.7464 43.2072C20.6296 43.3232 20.5739 43.4869 20.5962 43.6489C20.6203 43.8127 20.7168 43.9544 20.8615 44.0354C23.1325 45.2942 25.6873 45.9603 28.2888 45.9696H28.3351C32.0812 45.9604 35.6955 44.5893 38.4917 42.1141C37.1465 44.0262 35.256 45.4946 33.0628 46.3356Z" fill="#FF4206"/>
</svg>
