<svg width="75" height="88" viewBox="0 0 75 88" fill="none" xmlns="http://www.w3.org/2000/svg">
<path fill-rule="evenodd" clip-rule="evenodd" d="M32.5237 24.8348H16.2133C14.1396 24.8348 12.4502 23.1455 12.4502 21.0717C12.4502 18.998 14.1395 17.3086 16.2133 17.3086H32.5237C34.5974 17.3086 36.2868 18.9979 36.2868 21.0717C36.2868 23.1454 34.5975 24.8348 32.5237 24.8348ZM16.2133 19.6083C15.404 19.6083 14.7465 20.2658 14.7465 21.0751C14.7465 21.8843 15.404 22.5385 16.2133 22.5385H32.5237C33.333 22.5385 33.9905 21.8809 33.9905 21.0751C33.9905 20.2658 33.333 19.6083 32.5237 19.6083H16.2133Z" fill="#FF4206"/>
<path fill-rule="evenodd" clip-rule="evenodd" d="M32.5237 19.6082H16.2133C14.1396 19.6082 12.4502 17.9189 12.4502 15.8451C12.4502 13.7713 14.1395 12.082 16.2133 12.082H32.5237C34.5974 12.082 36.2868 13.7713 36.2868 15.8451C36.2868 17.9189 34.5975 19.6082 32.5237 19.6082ZM16.2133 14.3817C15.404 14.3817 14.7465 15.0393 14.7465 15.8451C14.7465 16.651 15.404 17.3085 16.2133 17.3085H32.5237C33.333 17.3085 33.9905 16.651 33.9905 15.8451C33.9905 15.0393 33.333 14.3817 32.5237 14.3817H16.2133Z" fill="#FF4206"/>
<path fill-rule="evenodd" clip-rule="evenodd" d="M18.5907 14.3812C18.1422 14.3812 17.714 14.1148 17.5285 13.6731L13.5294 4.056C13.3406 3.60079 13.462 3.07815 13.8329 2.75108C14.2038 2.42737 14.7399 2.37342 15.1648 2.61958C19.4977 5.12489 24.9502 2.4611 25.0037 2.43412C28.2981 0.80213 30.9619 0.404188 32.9278 1.2573C34.7048 2.02611 35.1971 3.50978 35.2477 3.67836C35.3286 3.94137 35.3084 4.22461 35.1971 4.47751L31.1002 13.7001C30.8439 14.2801 30.1628 14.5397 29.5828 14.2834C29.0028 14.0272 28.7432 13.3461 28.9995 12.7661L32.8772 4.04329C32.7188 3.82412 32.4355 3.5375 31.9634 3.34531C31.0564 2.97439 29.2894 2.87661 26.0288 4.49511C25.8063 4.60639 21.3149 6.79817 16.6923 5.67866L19.6529 12.7935C19.8956 13.3802 19.6191 14.0512 19.0324 14.294C18.8874 14.3547 18.7391 14.3812 18.5907 14.3812Z" fill="black"/>
<path fill-rule="evenodd" clip-rule="evenodd" d="M30.378 33.6632C29.9599 33.6632 29.5586 33.4339 29.3563 33.0394C27.6906 29.7888 26.6722 24.131 26.6284 23.891C26.5171 23.2672 26.9319 22.6703 27.559 22.5591C28.1795 22.4478 28.7797 22.8625 28.891 23.4897C28.9011 23.5436 29.8925 29.05 31.3996 31.9937C31.6896 32.5568 31.4671 33.2514 30.9006 33.5415C30.732 33.6292 30.5533 33.6696 30.3779 33.6696L30.378 33.6632Z" fill="black"/>
<path fill-rule="evenodd" clip-rule="evenodd" d="M18.3577 33.6637C18.1824 33.6637 18.0036 33.6232 17.835 33.5355C17.2719 33.2455 17.0494 32.5543 17.336 31.9878C18.8466 29.0407 19.8379 23.541 19.8447 23.4837C19.9559 22.8599 20.5528 22.4418 21.1766 22.5531C21.8004 22.6644 22.2185 23.2612 22.1072 23.885C22.0634 24.1244 21.0451 29.7859 19.3793 33.0368C19.177 33.4347 18.7724 33.6606 18.3576 33.6606L18.3577 33.6637Z" fill="black"/>
<path fill-rule="evenodd" clip-rule="evenodd" d="M24.5758 58.3085H24.1375C16.4259 58.3085 9.49997 54.252 5.59824 47.4276C5.58475 47.404 5.57126 47.3804 5.56114 47.3602C-0.144187 35.592 12.7062 23.8039 14.1899 22.4987C14.6654 22.0806 15.3903 22.1245 15.8118 22.6033C16.2299 23.0787 16.1861 23.8037 15.7073 24.2252C14.3585 25.4121 2.69174 36.0978 7.61129 46.3252C11.1316 52.4621 17.4131 56.0735 24.3533 56.0131C31.3636 56.094 37.5951 52.4624 41.1152 46.3252C41.412 45.7115 41.6581 45.0742 41.8436 44.4335C42.0223 43.8232 42.663 43.4725 43.2665 43.6513C43.8768 43.83 44.2242 44.4673 44.0488 45.0742C43.8229 45.8497 43.5261 46.6219 43.1654 47.3603C43.1553 47.3839 43.1418 47.4075 43.1283 47.4311C39.2304 54.2559 32.3044 58.3119 24.5692 58.3119L24.5758 58.3085ZM39.6346 31.232C39.2637 31.232 38.8996 31.0533 38.6803 30.7228C36.3166 27.1958 33.555 24.6904 33.0256 24.2218C32.5502 23.8037 32.5029 23.0754 32.9211 22.5999C33.3392 22.1211 34.0641 22.0772 34.543 22.4954C35.3387 23.1967 38.1341 25.7729 40.5888 29.4416C40.9429 29.9676 40.8013 30.6824 40.2752 31.0365C40.0797 31.168 39.8571 31.2287 39.638 31.2287L39.6346 31.232Z" fill="black"/>
<path fill-rule="evenodd" clip-rule="evenodd" d="M25.6717 74.5465C24.097 74.5465 22.7819 73.7507 22.0941 72.3143C21.0522 70.136 21.7771 67.3508 23.7868 65.8334C25.7054 64.3835 28.8851 63.2134 31.694 62.1782C33.3361 61.5747 34.8838 61.0048 35.8178 60.5058L36.0876 60.3608C40.316 58.0915 44.3185 55.9469 49.653 56.3549L50.3274 56.4055C53.5745 56.655 59.6173 57.1237 62.5376 56.7326C63.1614 56.6483 63.7447 57.09 63.829 57.7172C63.9133 58.3443 63.4716 58.9243 62.8444 59.0086C59.6849 59.4335 53.7168 58.9682 50.1526 58.695L49.4816 58.6445C44.8149 58.2971 41.2709 60.1855 37.1773 62.3839L36.9042 62.5289C35.8285 63.1055 34.2066 63.7023 32.4869 64.3363C29.8299 65.3141 26.8187 66.4202 25.1732 67.6644C23.9222 68.6086 23.6794 70.3013 24.1683 71.323C24.5561 72.1322 25.3248 72.4222 26.387 72.1525L41.7264 68.3119C42.3401 68.1568 42.9672 68.531 43.119 69.1481C43.2741 69.7618 42.8998 70.389 42.2827 70.5407L26.9434 74.3813C26.5051 74.4892 26.0768 74.5432 25.6688 74.5432L25.6717 74.5465Z" fill="black"/>
<path fill-rule="evenodd" clip-rule="evenodd" d="M13.7313 70.9088C13.6066 70.9088 13.4784 70.8886 13.3503 70.8447C10.3156 69.7826 9.52651 67.3379 10.093 65.3856C10.6663 63.4198 12.7062 61.663 15.3634 62.2766L26.0862 64.7719C26.7033 64.9168 27.0878 65.5339 26.9461 66.151C26.8011 66.7681 26.184 67.1525 25.5669 67.0109L14.8441 64.5156C13.5594 64.2155 12.5748 65.072 12.2983 66.0263C11.9645 67.1727 12.6422 68.1607 14.1091 68.6766C14.7059 68.8857 15.0229 69.5432 14.8138 70.14C14.6486 70.6121 14.2068 70.9088 13.7313 70.9088Z" fill="black"/>
<path fill-rule="evenodd" clip-rule="evenodd" d="M37.9963 87.1407C36.7082 87.1407 35.3696 87.0565 33.9162 86.8946C28.2953 86.2742 14.4033 80.96 4.21993 76.1786C0.534436 74.4488 0.116295 71.5187 0.874974 69.5393C1.69772 67.3981 4.1255 65.6649 6.77246 66.4675L24.3233 71.7816C24.9303 71.9671 25.2743 72.6077 25.0888 73.2147C24.9033 73.8217 24.2626 74.169 23.6557 73.9801L6.10478 68.666C4.75937 68.258 3.45445 69.2291 3.01948 70.3655C2.46648 71.8054 3.27911 73.2013 5.19435 74.1016C15.2059 78.8021 28.7808 84.0182 34.1656 84.6121C42.4572 85.5259 46.8306 83.7657 62.2235 76.8836C62.8035 76.6274 63.4812 76.8836 63.7408 77.4636C64.0005 78.0436 63.7409 78.7213 63.1609 78.981C49.9062 84.9021 44.5819 87.141 37.993 87.141L37.9963 87.1407Z" fill="black"/>
<path fill-rule="evenodd" clip-rule="evenodd" d="M71.9511 82.2145H64.2767C62.7694 82.2145 61.542 80.9871 61.542 79.4799V56.7229C61.542 55.2157 62.7694 53.9883 64.2767 53.9883H71.9511C73.4584 53.9883 74.6858 55.2157 74.6858 56.7229V79.4799C74.6858 80.9871 73.4584 82.2145 71.9511 82.2145ZM64.2767 56.2879C64.0406 56.2879 63.8383 56.4868 63.8383 56.7262V79.4832C63.8383 79.7192 64.0373 79.9215 64.2767 79.9215H71.9511C72.1872 79.9215 72.3895 79.7226 72.3895 79.4832V56.7262C72.3895 56.4902 72.1906 56.2879 71.9511 56.2879H64.2767Z" fill="black"/>
<path fill-rule="evenodd" clip-rule="evenodd" d="M69.088 61.6941H67.1391C66.5051 61.6941 65.9893 61.1782 65.9893 60.5443C65.9893 59.9104 66.5052 59.3945 67.1391 59.3945H69.088C69.722 59.3945 70.2378 59.9104 70.2378 60.5443C70.2378 61.1782 69.7219 61.6941 69.088 61.6941Z" fill="black"/>
<path fill-rule="evenodd" clip-rule="evenodd" d="M51.5916 43.5549C48.9412 43.5549 46.7832 41.3968 46.7832 38.7465C46.7832 38.1126 47.2991 37.5967 47.933 37.5967C48.5669 37.5967 49.0828 38.1126 49.0828 38.7465C49.0828 40.129 50.209 41.2552 51.5949 41.2552C52.9808 41.2552 54.1071 40.1289 54.1071 38.7465C54.1071 37.3606 52.9808 36.2378 51.5949 36.2378C48.9446 36.2378 46.7866 34.0798 46.7866 31.4295C46.7866 28.7791 48.9412 26.6211 51.5949 26.6211C54.2453 26.6211 56.4033 28.7758 56.4033 31.4295C56.4033 32.0634 55.8874 32.5793 55.2535 32.5793C54.6196 32.5793 54.1037 32.0634 54.1037 31.4295C54.1037 30.0469 52.9775 28.9208 51.5916 28.9208C50.2057 28.9208 49.0794 30.047 49.0794 31.4295C49.0794 32.8154 50.2057 33.9381 51.5916 33.9381C54.2419 33.9381 56.3999 36.0962 56.3999 38.7465C56.3999 41.3968 54.2419 43.5515 51.5916 43.5515V43.5549Z" fill="#FF4206"/>
<path fill-rule="evenodd" clip-rule="evenodd" d="M51.5918 49.2011C43.8127 49.2011 37.4834 42.872 37.4834 35.0928C37.4834 27.3135 43.8125 20.9844 51.5918 20.9844C59.3708 20.9844 65.7002 27.3135 65.7002 35.0928C65.7002 42.872 59.3711 49.2011 51.5918 49.2011ZM51.5918 23.2814C45.0805 23.2814 39.7795 28.5787 39.7795 35.0936C39.7795 41.6086 45.0802 46.9059 51.5918 46.9059C58.103 46.9059 63.404 41.6086 63.404 35.0936C63.404 28.5824 58.1034 23.2814 51.5918 23.2814Z" fill="#FF4206"/>
<path fill-rule="evenodd" clip-rule="evenodd" d="M51.5912 45.3182C50.9573 45.3182 50.4414 44.8023 50.4414 44.1684V42.4049C50.4414 41.7709 50.9573 41.2551 51.5912 41.2551C52.2251 41.2551 52.741 41.771 52.741 42.4049V44.1684C52.741 44.8023 52.2251 45.3182 51.5912 45.3182ZM51.5912 28.9206C50.9573 28.9206 50.4414 28.4047 50.4414 27.7708V26.0072C50.4414 25.3733 50.9573 24.8574 51.5912 24.8574C52.2251 24.8574 52.741 25.3733 52.741 26.0072V27.7708C52.741 28.4047 52.2251 28.9206 51.5912 28.9206Z" fill="#FF4206"/>
</svg>
