<svg width="60" height="61" viewBox="0 0 60 61" fill="none" xmlns="http://www.w3.org/2000/svg">
<rect y="0.5" width="60" height="60" rx="10" fill="white"/>
<path d="M39.6519 30.5178C39.6519 25.1957 35.3252 20.8691 30.0032 20.8691C24.6839 20.8691 20.3545 25.2046 20.3545 30.5178C20.3545 35.84 24.6812 40.1665 30.0032 40.1665C35.3252 40.1665 39.6519 35.8399 39.6519 30.5178ZM30.0032 38.2839C25.7203 38.2839 22.2461 34.8009 22.2461 30.5268C22.2461 26.2439 25.7291 22.7697 30.0032 22.7697C34.2773 22.7697 37.7603 26.2527 37.7603 30.5268C37.7632 34.8009 34.2861 38.2839 30.0032 38.2839Z" fill="#FF4204"/>
<path d="M33.5181 48.9109L33.8013 46.5199C35.5121 46.117 37.1265 45.4514 38.6213 44.523L40.5131 46.009C40.8868 46.3009 41.424 46.2717 41.7684 45.9331L45.4236 42.2779C45.7593 41.9422 45.7885 41.4021 45.4995 41.0226L44.0135 39.1308C44.939 37.636 45.6046 36.0128 46.0104 34.3108L48.4014 34.0276C48.8802 33.9692 49.2306 33.5721 49.2306 33.0846V27.9201C49.2306 27.4413 48.8715 27.0384 48.4014 26.9771L46.0017 26.6939C45.6046 25.0035 44.939 23.3832 44.0135 21.8739L45.4995 19.9821C45.7914 19.6084 45.7622 19.0712 45.4236 18.7267L41.7684 15.0716C41.4327 14.7358 40.8926 14.7067 40.5189 14.9957L38.6212 16.4817C37.1352 15.562 35.5208 14.8964 33.807 14.4935L33.5238 12.0938C33.4655 11.615 33.0684 11.2559 32.5809 11.2559H27.4163C26.9375 11.2559 26.5346 11.615 26.4733 12.0938L26.1902 14.4994C24.494 14.8965 22.8795 15.5621 21.376 16.4876L19.4783 14.9928C19.1046 14.6951 18.5674 14.7243 18.2229 15.0687L14.5678 18.7239C14.232 19.0596 14.2028 19.5997 14.4919 19.9793L15.9866 21.8769C15.0611 23.3805 14.3955 24.9949 13.9984 26.6911L11.5987 26.9743C11.1199 27.0327 10.7695 27.4298 10.7695 27.9173V33.0819C10.7695 33.5606 11.1286 33.9635 11.5987 34.0248L13.9897 34.308C14.3926 36.0129 15.0582 37.6333 15.9866 39.128L14.4919 41.0198C14.1941 41.3935 14.2233 41.9307 14.5678 42.2752L18.2229 45.9303C18.5587 46.2661 19.0988 46.2953 19.4783 46.0062L21.3701 44.5202C22.8794 45.4457 24.4939 46.1113 26.1901 46.5084L26.4733 48.9082C26.5317 49.3869 26.9287 49.746 27.4162 49.746H32.5808C33.0537 49.749 33.4597 49.3897 33.5181 48.9109ZM32 45.6324L31.7373 47.86H28.2456L27.977 45.6178C27.9244 45.2062 27.6179 44.8792 27.215 44.8033C25.3086 44.4442 23.4927 43.6968 21.8345 42.5845C21.4987 42.3597 21.0491 42.3743 20.7221 42.6283L18.9646 44.0121L16.4976 41.5452L17.8873 39.7876C18.1413 39.4665 18.1559 39.011 17.9311 38.6753C16.8246 37.0375 16.0772 35.2216 15.7035 33.2948C15.6276 32.8919 15.2919 32.5853 14.889 32.5328L12.6615 32.27V28.7784L14.9036 28.5156C15.3153 28.4631 15.6422 28.1565 15.7181 27.7536C16.0772 25.8414 16.8246 24.0313 17.9369 22.3789C18.1676 22.0344 18.153 21.5878 17.8931 21.2666L16.4947 19.4945L18.9617 17.0275L20.7338 18.426C21.0549 18.6799 21.5104 18.6945 21.8461 18.4639C23.4898 17.3516 25.2999 16.61 27.2121 16.2451C27.615 16.1692 27.9303 15.8422 27.9741 15.4306L28.2427 13.1797H31.7256L31.9942 15.4218C32.0467 15.8335 32.3533 16.1605 32.7561 16.2363C34.6917 16.61 36.5018 17.3574 38.1309 18.4552C38.4666 18.6858 38.9221 18.6712 39.2432 18.4172L41.0153 17.0275L43.4823 19.4945L42.0984 21.252C41.8444 21.5732 41.8298 22.0227 42.0546 22.3644C43.167 24.0226 43.9143 25.8385 44.2735 27.7449C44.3494 28.1478 44.6763 28.4631 45.088 28.5069L47.3301 28.7755V32.2584L45.1025 32.5212C44.6909 32.5737 44.3639 32.8802 44.288 33.2831C43.9143 35.2187 43.167 37.0288 42.0605 38.6637C41.8298 39.0082 41.8444 39.4548 42.0984 39.776L43.4823 41.5335L41.0153 44.0005L39.2578 42.6166C38.9366 42.3626 38.4812 42.348 38.1454 42.5787C36.5076 43.6852 34.7005 44.4326 32.7649 44.8063C32.3591 44.8909 32.0525 45.2207 32 45.6324Z" fill="#FF4204"/>
<path d="M35.8064 26.5767C35.4473 26.2031 34.8488 26.1885 34.4692 26.5476L28.6857 32.0945L25.8071 29.2159C25.4422 28.851 24.8437 28.851 24.47 29.2159C24.1051 29.5809 24.1051 30.1794 24.47 30.5531L27.9967 34.0798C28.1836 34.2667 28.423 34.3572 28.6624 34.3572C28.893 34.3572 29.1324 34.2667 29.3192 34.0944L35.7683 27.9052C36.1508 27.5549 36.1654 26.9592 35.8064 26.5767Z" fill="#FF4204"/>
</svg>
