<svg width="60" height="61" viewBox="0 0 60 61" fill="none" xmlns="http://www.w3.org/2000/svg">
<rect y="0.5" width="60" height="60" rx="10" fill="white"/>
<path fill-rule="evenodd" clip-rule="evenodd" d="M35.5302 34.6597C35.5187 34.8018 35.494 34.9454 35.456 35.0891C35.4527 35.1022 35.4412 35.1365 35.423 35.192C35.2581 35.6982 34.9332 36.1162 34.516 36.4167C35.5467 36.6257 36.7227 36.5751 38.3521 35.8207L43.7601 32.9631C43.7568 32.9223 43.7502 32.8815 43.7419 32.8423C43.7155 32.7231 43.6661 32.6039 43.5919 32.4912C43.4253 32.243 43.1697 32.0911 42.8777 32.0274C42.5248 31.9507 42.124 31.9948 41.7497 32.145L35.5302 34.6597ZM18.5796 33.8857L23.8702 31.2485C24.1193 31.1244 24.3733 31.0509 24.6289 31.0265C24.8878 31.002 25.1599 31.0281 25.4403 31.1032L33.3946 33.2407C33.7591 33.3566 34.0445 33.5885 34.2143 33.8742C34.3759 34.1469 34.432 34.4719 34.343 34.7919L34.3281 34.8474C34.216 35.1904 33.9537 35.4631 33.6206 35.628C33.2775 35.7978 32.8652 35.8517 32.4645 35.7553C32.448 35.7505 32.4315 35.7456 32.4133 35.7423L28.3909 34.6972C28.0841 34.6172 27.7691 34.7985 27.6899 35.1022C27.6091 35.4059 27.7922 35.7178 28.0989 35.7962L32.1132 36.8396C32.2896 36.9033 32.3738 36.936 32.4562 36.967C34.2027 37.6169 35.8586 38.2341 38.8471 36.8478L38.8735 36.8347L44.5454 33.8367C44.5701 33.8253 44.5949 33.8122 44.6179 33.7991L45.9242 33.1084C46.2342 32.9451 46.5921 32.9109 46.9187 32.9909C47.237 33.0676 47.519 33.2489 47.6905 33.5183L47.7103 33.5493C47.8538 33.791 47.8785 34.0604 47.8043 34.3102C47.7251 34.5748 47.5371 34.8214 47.2617 34.9928L47.2188 35.0189L35.5487 41.8085C35.2798 41.9652 34.9945 42.0599 34.701 42.0959C34.4058 42.1301 34.1006 42.104 33.7939 42.0142L30.441 41.0328L30.1079 40.9332C28.5312 40.4646 27.5532 40.1739 25.9815 41.0606L23.732 42.3294L18.5798 33.8874L18.5796 33.8857ZM18.7874 48.226L11.0822 35.6004C10.9189 35.331 11.0063 34.9815 11.2785 34.8182L16.5526 31.6618C16.8247 31.5002 17.1777 31.5867 17.3426 31.8561L17.9858 32.9094L23.3558 30.233C23.7318 30.0453 24.1227 29.9326 24.5251 29.895C24.9292 29.8575 25.3382 29.8934 25.7455 30.0028L33.6255 32.1207C33.6453 32.1256 33.6865 32.1386 33.7492 32.1582C34.3908 32.3624 34.9004 32.7804 35.2071 33.2997C35.25 33.3715 35.2879 33.445 35.3226 33.5201L41.3191 31.0952C41.9062 30.8584 42.5478 30.7931 43.1267 30.9189C43.699 31.0446 44.2086 31.3532 44.5516 31.8643C44.667 32.0374 44.7561 32.2203 44.8155 32.4081L45.3894 32.1044C45.9568 31.8039 46.6049 31.7418 47.1937 31.8839C47.7907 32.0276 48.33 32.3803 48.6681 32.9094C48.6747 32.9208 48.6879 32.942 48.706 32.9714C49.0194 33.4988 49.0721 34.0867 48.9122 34.6272C48.7571 35.1513 48.3976 35.6265 47.8798 35.9515C47.8649 35.9613 47.8402 35.976 47.8055 35.9956L36.1354 42.7851C35.7248 43.0235 35.2894 43.1705 34.8424 43.2244C34.3955 43.2766 33.937 43.2374 33.4768 43.1019L30.124 42.1205C29.8584 42.0421 29.8205 42.0307 29.7859 42.0209C28.4978 41.6388 27.6979 41.4004 26.555 42.047L24.3335 43.2995L25.0542 44.48C25.2175 44.7495 25.1301 45.0989 24.858 45.2622L19.5838 48.4186C19.3117 48.5803 18.9587 48.4937 18.7938 48.2243L18.7874 48.226ZM12.3636 35.4993L19.4752 47.15L23.7648 44.5831L16.6532 32.9323L12.3636 35.4993ZM29.6575 12.5013H43.3347C43.8114 12.5013 44.2435 12.6939 44.5568 13.0042C44.8702 13.3144 45.0648 13.7422 45.0648 14.2141V27.756C45.0648 28.2279 44.8702 28.6557 44.5568 28.966C44.2435 29.2763 43.8114 29.4689 43.3347 29.4689H29.6575C29.1808 29.4689 28.7488 29.2762 28.4354 28.966C28.122 28.6557 27.9274 28.2279 27.9274 27.756V14.2129C27.9274 13.741 28.1221 13.3132 28.4354 13.0029C28.7488 12.6927 29.1808 12.5 29.6575 12.5V12.5013ZM35.1807 13.641V18.5348H37.8113V13.641H35.1807ZM38.9624 13.641V19.1046C38.9624 19.4198 38.7051 19.6745 38.3868 19.6745H34.6051C34.2868 19.6745 34.0296 19.4198 34.0296 19.1046V13.641H29.6576C29.4993 13.641 29.3542 13.7047 29.2503 13.8092C29.1447 13.9137 29.0804 14.0558 29.0804 14.2126V27.7544C29.0804 27.9112 29.1447 28.0549 29.2503 28.1578C29.3558 28.2623 29.4993 28.3259 29.6576 28.3259H43.3349C43.4932 28.3259 43.6384 28.2623 43.7423 28.1578C43.8478 28.0533 43.9121 27.9112 43.9121 27.7544V14.2126C43.9121 14.0558 43.8478 13.9121 43.7423 13.8092C43.6367 13.7047 43.4932 13.641 43.3349 13.641H38.9624ZM31.4979 26.4284H34.2389C34.5572 26.4284 34.8145 26.1737 34.8145 25.8585C34.8145 25.5433 34.5572 25.2886 34.2389 25.2886H31.4979C31.1795 25.2886 30.9223 25.5433 30.9223 25.8585C30.9223 26.1736 31.1795 26.4284 31.4979 26.4284Z" fill="#FF4204"/>
</svg>
