<svg width="22" height="22" viewBox="0 0 22 22" fill="none" xmlns="http://www.w3.org/2000/svg">
<path d="M19.3992 0.199707H2.59922C1.27922 0.199707 0.199219 1.27971 0.199219 2.59971V19.3997C0.199219 20.7209 1.27922 21.7997 2.59922 21.7997H10.9992V13.3997H8.59922V10.4297H10.9992V7.96971C10.9992 5.37291 12.4536 3.54891 15.5184 3.54891L17.682 3.55131V6.67731H16.2456C15.0528 6.67731 14.5992 7.57251 14.5992 8.40291V10.4309H17.6808L16.9992 13.3997H14.5992V21.7997H19.3992C20.7192 21.7997 21.7992 20.7209 21.7992 19.3997V2.59971C21.7992 1.27971 20.7192 0.199707 19.3992 0.199707Z" fill="#FF4206"/>
</svg>
