<svg width="36" height="32" viewBox="0 0 36 32" fill="none" xmlns="http://www.w3.org/2000/svg">
<path d="M33.833 16.0013V28.668C33.833 29.5078 33.4994 30.3133 32.9055 30.9071C32.3116 31.501 31.5062 31.8346 30.6663 31.8346H5.33301C4.49316 31.8346 3.6877 31.501 3.09384 30.9071C2.49997 30.3133 2.16634 29.5078 2.16634 28.668V16.0013C1.74642 16.0013 1.34369 15.8345 1.04676 15.5376C0.749823 15.2406 0.583008 14.8379 0.583008 14.418V9.66797C0.583008 8.82812 0.916638 8.02266 1.5105 7.4288C2.10437 6.83493 2.90982 6.5013 3.74967 6.5013H8.76884C8.5899 5.99263 8.49887 5.4572 8.49967 4.91797C8.49967 3.65819 9.00012 2.45001 9.89092 1.55921C10.7817 0.668414 11.9899 0.167969 13.2497 0.167969C14.833 0.167969 16.2263 0.959635 17.0972 2.1313V2.11547L17.9997 3.33464L18.9022 2.11547V2.1313C19.773 0.959635 21.1663 0.167969 22.7497 0.167969C24.0095 0.167969 25.2176 0.668414 26.1084 1.55921C26.9992 2.45001 27.4997 3.65819 27.4997 4.91797C27.5005 5.4572 27.4095 5.99263 27.2305 6.5013H32.2497C33.0895 6.5013 33.895 6.83493 34.4888 7.4288C35.0827 8.02266 35.4163 8.82812 35.4163 9.66797V14.418C35.4163 14.8379 35.2495 15.2406 34.9526 15.5376C34.6557 15.8345 34.2529 16.0013 33.833 16.0013ZM5.33301 28.668H16.4163V16.0013H5.33301V28.668ZM30.6663 28.668V16.0013H19.583V28.668H30.6663ZM13.2497 3.33464C12.8297 3.33464 12.427 3.50145 12.1301 3.79838C11.8332 4.09532 11.6663 4.49804 11.6663 4.91797C11.6663 5.3379 11.8332 5.74062 12.1301 6.03755C12.427 6.33449 12.8297 6.5013 13.2497 6.5013C13.6696 6.5013 14.0723 6.33449 14.3693 6.03755C14.6662 5.74062 14.833 5.3379 14.833 4.91797C14.833 4.49804 14.6662 4.09532 14.3693 3.79838C14.0723 3.50145 13.6696 3.33464 13.2497 3.33464ZM22.7497 3.33464C22.3297 3.33464 21.927 3.50145 21.6301 3.79838C21.3332 4.09532 21.1663 4.49804 21.1663 4.91797C21.1663 5.3379 21.3332 5.74062 21.6301 6.03755C21.927 6.33449 22.3297 6.5013 22.7497 6.5013C23.1696 6.5013 23.5723 6.33449 23.8693 6.03755C24.1662 5.74062 24.333 5.3379 24.333 4.91797C24.333 4.49804 24.1662 4.09532 23.8693 3.79838C23.5723 3.50145 23.1696 3.33464 22.7497 3.33464ZM3.74967 9.66797V12.8346H16.4163V9.66797H3.74967ZM19.583 9.66797V12.8346H32.2497V9.66797H19.583Z" fill="white"/>
</svg>
