<svg width="36" height="32" viewBox="0 0 36 32" fill="none" xmlns="http://www.w3.org/2000/svg">
<path d="M4.83301 29.168H16.916V15.501H4.83301V29.168ZM19.083 29.168H31.166V15.501H19.083V29.168ZM3.25 13.335H16.916V9.16797H3.25V13.335ZM19.083 13.335H32.75V9.16797H19.083V13.335ZM13.25 2.83496C12.6975 2.83496 12.1671 3.05461 11.7764 3.44531C11.3859 3.83598 11.166 4.36559 11.166 4.91797C11.166 5.47035 11.3859 5.99996 11.7764 6.39062C12.1671 6.78133 12.6975 7.00098 13.25 7.00098C13.8024 7.00089 14.332 6.78125 14.7227 6.39062C15.1133 5.99994 15.333 5.47043 15.333 4.91797C15.333 4.36551 15.1133 3.836 14.7227 3.44531C14.332 3.05469 13.8024 2.83505 13.25 2.83496ZM22.75 2.83496C22.1975 2.83496 21.6671 3.05461 21.2764 3.44531C20.8859 3.83598 20.666 4.36559 20.666 4.91797C20.666 5.47035 20.8859 5.99996 21.2764 6.39062C21.6671 6.78133 22.1975 7.00098 22.75 7.00098C23.3024 7.00089 23.832 6.78125 24.2227 6.39062C24.6133 5.99994 24.833 5.47043 24.833 4.91797C24.833 4.36551 24.6133 3.836 24.2227 3.44531C23.832 3.05469 23.3024 2.83505 22.75 2.83496ZM2.66602 15.501H2.16602C1.87882 15.5009 1.60348 15.3867 1.40039 15.1836C1.19733 14.9804 1.08301 14.7052 1.08301 14.418V9.66797C1.08301 8.96072 1.36416 8.28232 1.86426 7.78223C2.36434 7.28223 3.04283 7.00098 3.75 7.00098H9.47461L9.24023 6.33496C9.08026 5.88004 8.99931 5.40117 9 4.91895V4.91797C9 3.79095 9.44731 2.71008 10.2441 1.91309C11.0412 1.11606 12.1228 0.667969 13.25 0.667969C14.6618 0.668077 15.9116 1.37395 16.6963 2.42969L17.5977 3.64258V3.63184L18 4.1748L18.4014 3.63184L18.4023 3.62988V3.64258L19.3037 2.42969C20.0884 1.37389 21.3381 0.667969 22.75 0.667969C23.8771 0.668055 24.9579 1.11613 25.7549 1.91309C26.5518 2.7101 27 3.79088 27 4.91797V4.91895C27.0007 5.40121 26.9188 5.88001 26.7588 6.33496L26.5244 7.00098H32.25C32.9571 7.00106 33.6357 7.28221 34.1357 7.78223C34.6357 8.28231 34.916 8.9608 34.916 9.66797V14.418C34.916 14.7053 34.8018 14.9804 34.5986 15.1836C34.3955 15.3868 34.1203 15.501 33.833 15.501H33.333V28.668C33.333 29.3752 33.0519 30.0536 32.5518 30.5537C32.0517 31.0537 31.3732 31.335 30.666 31.335H5.33301C4.62576 31.335 3.94736 31.0538 3.44727 30.5537C2.94717 30.0536 2.66602 29.3752 2.66602 28.668V15.501Z" fill="black" stroke="black"/>
</svg>
