<svg width="36" height="36" viewBox="0 0 36 36" fill="none" xmlns="http://www.w3.org/2000/svg">
<path fill-rule="evenodd" clip-rule="evenodd" d="M4.42829 0.0195312C1.99358 0.0195312 0.0175782 1.99553 0.0175782 4.43025V11.691C0.0172762 17.046 1.70189 22.2654 4.8328 26.6097C7.9637 30.9541 12.3822 34.2033 17.4623 35.897C17.8109 36.0145 18.1885 36.0145 18.5372 35.897C23.6173 34.2033 28.0357 30.9541 31.1667 26.6097C34.2976 22.2654 35.9822 17.046 35.9819 11.691V4.43025C35.9819 1.99553 34.0086 0.0195312 31.5712 0.0195312H4.42829ZM3.41044 4.43025C3.41044 3.86839 3.86644 3.41239 4.42829 3.41239H31.5712C32.133 3.41239 32.589 3.86839 32.589 4.43025V11.691C32.5902 16.4143 31.0777 21.0138 28.2733 24.8145C25.5029 22.1785 21.8238 20.7107 17.9997 20.716C14.0179 20.716 10.3997 22.2767 7.72344 24.8145C4.92002 21.0134 3.40844 16.414 3.41044 11.691V4.43025ZM17.9997 8.50167C17.0099 8.50167 16.0606 8.89488 15.3607 9.59479C14.6608 10.2947 14.2676 11.244 14.2676 12.2338C14.2676 13.2236 14.6608 14.1729 15.3607 14.8728C16.0606 15.5728 17.0099 15.966 17.9997 15.966C18.9895 15.966 19.9388 15.5728 20.6387 14.8728C21.3387 14.1729 21.7319 13.2236 21.7319 12.2338C21.7319 11.244 21.3387 10.2947 20.6387 9.59479C19.9388 8.89488 18.9895 8.50167 17.9997 8.50167ZM10.8747 12.2338C10.8747 10.3441 11.6254 8.53188 12.9616 7.19568C14.2978 5.85948 16.1101 5.10882 17.9997 5.10882C19.8894 5.10882 21.7017 5.85948 23.0379 7.19568C24.3741 8.53188 25.1247 10.3441 25.1247 12.2338C25.1247 14.1235 24.3741 15.9358 23.0379 17.272C21.7017 18.6081 19.8894 19.3588 17.9997 19.3588C16.1101 19.3588 14.2978 18.6081 12.9616 17.272C11.6254 15.9358 10.8747 14.1235 10.8747 12.2338Z" fill="black"/>
</svg>
