<svg width="22" height="22" viewBox="0 0 22 22" fill="none" xmlns="http://www.w3.org/2000/svg">
<path d="M12.1308 -0.000244141C13.3682 0.00305578 13.9963 0.00965562 14.5386 0.0250552L14.752 0.032755C14.9984 0.0415548 15.2415 0.0525545 15.5351 0.0657542C16.7055 0.120753 17.504 0.305549 18.2047 0.577242C18.9307 0.856635 19.5422 1.23503 20.1538 1.84551C20.7133 2.3952 21.1462 3.0604 21.422 3.79466C21.6937 4.49535 21.8785 5.29393 21.9335 6.4654C21.9467 6.75799 21.9577 7.00109 21.9665 7.24858L21.9731 7.46198C21.9896 8.00316 21.9962 8.63125 21.9984 9.86872L21.9995 10.6893V12.1303C22.0022 12.9326 21.9938 13.7349 21.9742 14.537L21.9676 14.7504C21.9588 14.9979 21.9478 15.241 21.9346 15.5336C21.8796 16.705 21.6926 17.5025 21.422 18.2043C21.1462 18.9386 20.7133 19.6038 20.1538 20.1535C19.6041 20.713 18.9389 21.1458 18.2047 21.4217C17.504 21.6934 16.7055 21.8782 15.5351 21.9332L14.752 21.9662L14.5386 21.9728C13.9963 21.9882 13.3682 21.9959 12.1308 21.9981L11.3103 21.9992H9.87043C9.06775 22.0021 8.26508 21.9936 7.46265 21.9739L7.24926 21.9673C6.98814 21.9574 6.72709 21.9461 6.4661 21.9332C5.29576 21.8782 4.4972 21.6934 3.79543 21.4217C3.06158 21.1457 2.39679 20.7129 1.84743 20.1535C1.2875 19.6039 0.854302 18.9387 0.578097 18.2043C0.30641 17.5036 0.121619 16.705 0.0666222 15.5336L0.0336239 14.7504L0.0281244 14.537C0.00784803 13.7349 -0.00131916 12.9326 0.000625645 12.1303V9.86872C-0.00241889 9.0664 0.00564823 8.26407 0.0248245 7.46198L0.0325241 7.24858C0.0413236 7.00109 0.0523231 6.75799 0.0655224 6.4654C0.12052 5.29393 0.30531 4.49645 0.576997 3.79466C0.853846 3.0601 1.28781 2.39488 1.84853 1.84551C2.39757 1.28623 3.06198 0.853416 3.79543 0.577242C4.4972 0.305549 5.29466 0.120753 6.4661 0.0657542C6.75868 0.0525545 7.00287 0.0415548 7.24926 0.032755L7.46265 0.0261551C8.26472 0.00661167 9.06702 -0.00182227 9.86933 0.000855753L12.1308 -0.000244141ZM11.0001 5.49962C9.54145 5.49962 8.14258 6.07907 7.11118 7.1105C6.07978 8.14192 5.50035 9.54083 5.50035 10.9995C5.50035 12.4581 6.07978 13.8571 7.11118 14.8885C8.14258 15.9199 9.54145 16.4994 11.0001 16.4994C12.4587 16.4994 13.8576 15.9199 14.889 14.8885C15.9204 13.8571 16.4998 12.4581 16.4998 10.9995C16.4998 9.54083 15.9204 8.14192 14.889 7.1105C13.8576 6.07907 12.4587 5.49962 11.0001 5.49962ZM11.0001 7.69957C11.4334 7.6995 11.8625 7.78478 12.2629 7.95055C12.6633 8.11632 13.0271 8.35933 13.3336 8.6657C13.64 8.97208 13.8832 9.33582 14.0491 9.73616C14.215 10.1365 14.3004 10.5656 14.3005 10.9989C14.3005 11.4323 14.2152 11.8614 14.0495 12.2618C13.8837 12.6622 13.6407 13.026 13.3343 13.3325C13.028 13.639 12.6642 13.8821 12.2639 14.048C11.8636 14.2139 11.4345 14.2993 11.0012 14.2994C10.126 14.2994 9.28667 13.9517 8.66784 13.3329C8.049 12.714 7.70134 11.8747 7.70134 10.9995C7.70134 10.1243 8.049 9.28495 8.66784 8.66609C9.28667 8.04724 10.126 7.69957 11.0012 7.69957M16.7759 3.84966C16.4112 3.84966 16.0615 3.99452 15.8037 4.25238C15.5458 4.51024 15.4009 4.85997 15.4009 5.22463C15.4009 5.58929 15.5458 5.93902 15.8037 6.19688C16.0615 6.45473 16.4112 6.5996 16.7759 6.5996C17.1405 6.5996 17.4903 6.45473 17.7481 6.19688C18.006 5.93902 18.1508 5.58929 18.1508 5.22463C18.1508 4.85997 18.006 4.51024 17.7481 4.25238C17.4903 3.99452 17.1405 3.84966 16.7759 3.84966Z" fill="#FF4206"/>
</svg>
