<svg width="16" height="16" viewBox="0 0 16 16" fill="none" xmlns="http://www.w3.org/2000/svg">
<rect width="16" height="16" rx="8" fill="white"/>
<path fill-rule="evenodd" clip-rule="evenodd" d="M8 15C8.91925 15 9.8295 14.8189 10.6788 14.4672C11.5281 14.1154 12.2997 13.5998 12.9497 12.9497C13.5998 12.2997 14.1154 11.5281 14.4672 10.6788C14.8189 9.8295 15 8.91925 15 8C15 7.08075 14.8189 6.1705 14.4672 5.32122C14.1154 4.47194 13.5998 3.70026 12.9497 3.05025C12.2997 2.40024 11.5281 1.88463 10.6788 1.53284C9.8295 1.18106 8.91925 1 8 1C6.14348 1 4.36301 1.7375 3.05025 3.05025C1.7375 4.36301 1 6.14348 1 8C1 9.85652 1.7375 11.637 3.05025 12.9497C4.36301 14.2625 6.14348 15 8 15ZM7.81956 10.8311L11.7084 6.16444L10.5138 5.16889L7.16933 9.18144L5.43878 7.45011L4.339 8.54989L6.67233 10.8832L7.27433 11.4852L7.81956 10.8311Z" fill="#7DC240"/>
</svg>
