<svg width="24" height="24" viewBox="0 0 24 24" fill="none" xmlns="http://www.w3.org/2000/svg">
<path d="M20.5556 0.999756C21.2039 0.999756 21.8256 1.25729 22.284 1.71572C22.7425 2.17414 23 2.79589 23 3.4442V20.5553C23 21.2036 22.7425 21.8254 22.284 22.2838C21.8256 22.7422 21.2039 22.9998 20.5556 22.9998H3.44444C2.79614 22.9998 2.17438 22.7422 1.71596 22.2838C1.25754 21.8254 1 21.2036 1 20.5553V3.4442C1 2.79589 1.25754 2.17414 1.71596 1.71572C2.17438 1.25729 2.79614 0.999756 3.44444 0.999756H20.5556ZM19.9444 19.9442V13.4664C19.9444 12.4097 19.5247 11.3962 18.7774 10.649C18.0302 9.90177 17.0167 9.48198 15.96 9.48198C14.9211 9.48198 13.7111 10.1175 13.1244 11.0709V9.7142H9.71444V19.9442H13.1244V13.9186C13.1244 12.9775 13.8822 12.2075 14.8233 12.2075C15.2771 12.2075 15.7124 12.3878 16.0333 12.7087C16.3542 13.0296 16.5344 13.4648 16.5344 13.9186V19.9442H19.9444ZM5.74222 7.79531C6.2868 7.79531 6.80907 7.57898 7.19415 7.1939C7.57922 6.80883 7.79556 6.28656 7.79556 5.74198C7.79556 4.60531 6.87889 3.67642 5.74222 3.67642C5.1944 3.67642 4.66902 3.89404 4.28165 4.28141C3.89429 4.66878 3.67667 5.19416 3.67667 5.74198C3.67667 6.87864 4.60556 7.79531 5.74222 7.79531ZM7.44111 19.9442V9.7142H4.05556V19.9442H7.44111Z" fill="#FF4206"/>
</svg>
