<svg width="90" height="84" viewBox="0 0 90 84" fill="none" xmlns="http://www.w3.org/2000/svg">
<path fill-rule="evenodd" clip-rule="evenodd" d="M70.0717 45.5733V28.3703C70.0717 27.6164 70.6811 27.007 71.435 27.007C72.5483 27.007 73.6381 27.1046 74.6967 27.2922V16.2802C74.6967 15.9716 74.5678 15.6903 74.3647 15.4872C74.1616 15.2841 73.8803 15.1552 73.5717 15.1552H50.3997L50.3904 12.4293H73.5624C74.6249 12.4293 75.5858 12.8629 76.2851 13.5582C76.9804 14.2535 77.414 15.2184 77.414 16.2809L77.4233 27.9915C80.1421 28.9173 82.5795 30.4563 84.5639 32.4446C87.9233 35.804 90.0014 40.4485 90.0014 45.5736C90.0014 46.3275 89.392 46.9369 88.6381 46.9369H77.4191V49.2572H83.5871C84.341 49.2572 84.9504 49.8666 84.9504 50.6205C84.9504 55.7494 82.8723 60.39 79.5129 63.7495C76.1535 67.1089 71.509 69.187 66.3839 69.187C62.8878 69.187 59.6144 68.2182 56.8214 66.5386H45.2234L47.3523 74.48H52.7312C53.8796 74.48 54.9187 74.9487 55.6726 75.7027C56.4265 76.4566 56.8953 77.4996 56.8953 78.6441V82.5269C56.8953 83.2808 56.2859 83.8902 55.532 83.8902H21.887C21.1331 83.8902 20.5237 83.2808 20.5237 82.5269V78.6441C20.5237 77.4957 20.9924 76.4566 21.7464 75.7027C22.5003 74.9488 23.5433 74.48 24.6878 74.48H30.0667L32.1956 66.5386L3.8516 66.5425C2.7891 66.5425 1.8282 66.1089 1.1289 65.4136C0.43359 64.7183 0 63.7534 0 62.6909V16.2809C0 15.2184 0.43359 14.2575 1.1289 13.5582C1.82421 12.8629 2.7891 12.4293 3.8516 12.4293H22.7966L22.8059 15.1552H3.8529C3.54431 15.1552 3.26306 15.2841 3.05993 15.4872C2.8568 15.6903 2.7279 15.9716 2.7279 16.2802V55.7962H48.5479C48.0713 54.1517 47.8174 52.4173 47.8174 50.6204C47.8174 45.4915 49.8955 40.8509 53.2549 37.4914C56.6143 34.1319 61.2588 32.0539 66.3839 32.0539C67.1378 32.0539 67.7472 32.6632 67.7472 33.4172V49.2572H74.6925V46.9369H71.4308C70.6769 46.9369 70.0717 46.3272 70.0717 45.5733ZM34.9802 12.4293L34.9895 15.1552H38.2161L38.2068 12.4293H34.9802ZM72.7983 29.7923C76.6264 30.1204 80.0717 31.8079 82.6342 34.3743C85.2006 36.9407 86.8881 40.3821 87.2162 44.2102H72.7982L72.7983 29.7923ZM57.3183 63.6125C56.5566 63.0773 55.8417 62.4797 55.1855 61.8234C52.3183 58.9562 50.5449 54.9953 50.5449 50.6244C50.5449 46.2494 52.3183 42.2885 55.1855 39.4254C57.7519 36.859 61.1933 35.1715 65.0214 34.8434V50.2734L57.3183 63.6125ZM67.166 51.9875H82.17C81.8419 55.8156 80.1544 59.2609 77.588 61.8234C74.7208 64.6906 70.7599 66.464 66.389 66.464C63.9867 66.464 61.7093 65.9288 59.6702 64.9718L67.166 51.9875ZM53.318 63.8155L53.2555 63.753C51.7477 62.2452 50.4977 60.4796 49.5797 58.5264H2.7277V62.6905C2.7277 62.9991 2.85661 63.2803 3.05973 63.4835C3.26285 63.6866 3.54411 63.8155 3.8527 63.8155H53.318ZM8.752 49.9525C7.99809 49.9525 7.3887 49.3431 7.3887 48.5892C7.3887 47.8353 7.99808 47.2259 8.752 47.2259H41.904C42.6579 47.2259 43.2673 47.8353 43.2673 48.5892C43.2673 49.3431 42.6579 49.9525 41.904 49.9525H8.752ZM8.752 42.2416C7.99809 42.2416 7.3887 41.6322 7.3887 40.8783C7.3887 40.1244 7.99808 39.515 8.752 39.515H20.365C21.1189 39.515 21.7283 40.1244 21.7283 40.8783C21.7283 41.6322 21.1189 42.2416 20.365 42.2416H8.752ZM26.26 42.2416C25.5061 42.2416 24.8967 41.6322 24.8967 40.8783C24.8967 40.1244 25.5061 39.515 26.26 39.515H30.7131C31.467 39.515 32.0764 40.1244 32.0764 40.8783C32.0764 41.6322 31.467 42.2416 30.7131 42.2416H26.26ZM44.533 74.4836L42.4041 66.5422H35.0135L32.8846 74.4836H44.533ZM52.7322 77.2102H24.6892C24.2947 77.2102 23.9353 77.3704 23.6736 77.6321C23.4119 77.8938 23.2517 78.2532 23.2517 78.6477V81.1633H54.1697V78.6477C54.1697 78.2531 54.0096 77.8938 53.7478 77.6321C53.4861 77.3704 53.1267 77.2102 52.7322 77.2102ZM10.1192 30.9372V20.4602H16.8497V30.9372H10.1192ZM18.213 33.6638H8.756C8.00209 33.6638 7.3927 33.0544 7.3927 32.3005V19.0975C7.3927 18.3436 8.00208 17.7342 8.756 17.7342H18.213C18.9669 17.7342 19.5763 18.3436 19.5763 19.0975V32.3005C19.5763 33.0544 18.9669 33.6638 18.213 33.6638Z" fill="black"/>
<path fill-rule="evenodd" clip-rule="evenodd" d="M50.3997 15.1552V32.2962C50.3997 33.0501 49.7903 33.6595 49.0364 33.6595H39.5794C38.8255 33.6595 38.2161 33.0501 38.2161 32.2962V15.1552L38.2068 12.4293V1.3633C38.2068 0.60939 38.8162 0 39.5701 0H49.0271C49.781 0 50.3904 0.60937 50.3904 1.3633V12.4293L50.3997 15.1552ZM40.9392 30.9372V2.72619H47.6697V30.9372H40.9392Z" fill="#FF4304"/>
<path fill-rule="evenodd" clip-rule="evenodd" d="M22.8059 15.1552L22.7966 12.4293V10.2262C22.7966 9.47229 23.406 8.8629 24.1599 8.8629H33.6169C34.3708 8.8629 34.9802 9.47228 34.9802 10.2262V12.4293L34.9895 15.1552V32.2962C34.9895 33.0501 34.3801 33.6595 33.6262 33.6595H24.1692C23.4153 33.6595 22.8059 33.0501 22.8059 32.2962V15.1552ZM25.5292 11.5932V30.9372H32.2597V11.5932H25.5292Z" fill="#FF4304"/>
</svg>
