<svg width="93" height="25" viewBox="0 0 93 25" fill="none" xmlns="http://www.w3.org/2000/svg">
<rect width="92.4" height="24.6988" fill="black"/>
<path opacity="0.885" fill-rule="evenodd" clip-rule="evenodd" d="M12.1645 2.08071C14.0585 1.78204 15.6652 2.31228 16.9848 3.67142C19.8359 3.37516 21.8765 4.51595 23.1066 7.09386C23.4088 8.2144 23.4249 9.33918 23.1548 10.4681C24.614 12.4414 24.7907 14.5302 23.6851 16.7345C22.8702 17.9623 21.7455 18.7657 20.3108 19.1447C19.6511 20.9612 18.3817 22.102 16.5028 22.5671C14.4899 22.9724 12.7867 22.4422 11.3932 20.9764C10.312 21.2224 9.26762 21.0939 8.26 20.5908C8.22787 20.6229 8.19573 20.6551 8.16359 20.6872C5.82091 19.3117 4.8247 17.3513 5.17498 14.8064C5.27688 14.6407 5.35722 14.4639 5.416 14.2762C4.20355 12.9505 3.76972 11.3919 4.11451 9.60044C4.50404 8.35505 5.19496 7.31068 6.18725 6.46722C6.79069 6.08429 7.43341 5.79507 8.11539 5.59956C8.88803 3.74961 10.2377 2.57663 12.1645 2.08071ZM12.9357 3.52681C13.8738 3.51727 14.7093 3.79048 15.4423 4.34627C14.1327 5.1101 12.8151 5.86525 11.4896 6.61183C11.3905 6.79124 11.2459 6.91985 11.0558 6.99746C11.0151 9.0057 10.983 10.9981 10.9594 12.9747C10.4614 12.6292 9.94726 12.3078 9.41688 12.0106C9.35261 10.3396 9.35261 8.66847 9.41688 6.99746C9.75649 4.9706 10.9294 3.81372 12.9357 3.52681ZM17.1776 5.16573C19.9488 4.9653 21.5234 6.23469 21.9016 8.97379C21.8534 9.1184 21.8051 9.26301 21.7569 9.40762C20.4283 8.65536 19.1268 7.86801 17.8525 7.04566C17.6947 6.98772 17.534 6.93951 17.3704 6.90105C15.6128 7.81229 13.8775 8.77635 12.1645 9.79325C12.036 9.18271 12.036 8.57207 12.1645 7.96152C13.8166 6.97528 15.4876 6.04341 17.1776 5.16573ZM7.82617 7.28668C7.90634 8.97331 7.95454 10.6765 7.97078 12.3962C9.67024 13.4467 11.3895 14.459 13.1285 15.433C12.6271 15.7639 12.113 16.0692 11.586 16.3489C10.1078 15.5134 8.62956 14.6779 7.15132 13.8423C5.32708 12.2083 5.08607 10.3766 6.42827 8.34715C6.87487 7.95661 7.34083 7.60308 7.82617 7.28668ZM16.792 8.34715C18.2747 9.13441 19.7529 9.95386 21.2267 10.8055C22.7524 11.939 23.2506 13.4333 22.721 15.2884C22.309 16.2776 21.618 16.9845 20.6483 17.4094C20.5977 15.6663 20.5172 13.9309 20.4072 12.2034C18.728 11.2111 17.0409 10.2309 15.3459 9.26301C15.8668 9.00349 16.3488 8.69826 16.792 8.34715ZM14.189 9.88966C14.9032 10.2635 15.6101 10.6652 16.31 11.0947C16.3723 11.408 16.4045 11.7293 16.4064 12.0588C16.3689 12.5728 16.3528 13.0709 16.3582 13.5531C15.6772 14.0078 14.9703 14.4255 14.2372 14.8064C13.5508 14.3663 12.8439 13.9486 12.1163 13.5531C12.052 12.7498 12.052 11.9463 12.1163 11.1429C12.8374 10.7591 13.5282 10.3413 14.189 9.88966ZM17.5633 11.8178C18.0666 12.0937 18.5647 12.3829 19.0576 12.6855C19.1219 14.3565 19.1219 16.0276 19.0576 17.6986C18.7131 19.7941 17.4759 20.951 15.3459 21.1692C14.5342 21.1674 13.7951 20.9424 13.1285 20.4944C13.0118 20.4198 13.0118 20.3395 13.1285 20.2534C14.4079 19.5491 15.6932 18.8422 16.9848 18.1324C17.2388 17.9434 17.4157 17.7024 17.515 17.4094C17.5633 15.5458 17.5794 13.6819 17.5633 11.8178ZM16.2136 14.9028C16.2848 14.8902 16.3491 14.9063 16.4064 14.951C16.4296 15.5285 16.3975 16.123 16.31 16.7345C14.68 17.7263 13.009 18.6421 11.2968 19.4821C8.55113 19.7416 6.97649 18.5044 6.57288 15.7705C6.64478 15.6513 6.67692 15.5227 6.66929 15.3848C6.84363 15.384 7.00431 15.4322 7.15132 15.5295C7.67801 15.8324 8.17612 16.1698 8.64563 16.5417C8.67776 16.5096 8.7099 16.4774 8.74203 16.4453C9.48771 16.995 10.2911 17.4449 11.1522 17.795C12.88 16.8913 14.5671 15.9272 16.2136 14.9028Z" fill="white"/>
<path opacity="0.937" fill-rule="evenodd" clip-rule="evenodd" d="M31.6193 4.73666C32.3823 4.72472 33.145 4.73666 33.9073 4.77241C36.3217 5.25641 37.716 6.7222 38.0902 9.16979C38.1379 10.3853 38.1379 11.6009 38.0902 12.8164C37.7102 15.2461 36.3159 16.688 33.9073 17.1423C31.7514 17.5428 29.9281 16.9588 28.4374 15.3905C28.2288 15.0926 28.0381 14.7828 27.8654 14.461C27.7454 14.0752 27.6262 13.6938 27.5079 13.3169C27.394 11.8896 27.3702 10.4595 27.4364 9.02679C27.8529 6.64391 29.2472 5.21386 31.6193 4.73666ZM32.2628 6.59571C34.1785 6.40473 35.3344 7.23895 35.7306 9.09829C35.7783 10.3376 35.7783 11.5771 35.7306 12.8164C35.5429 14.1958 34.7683 15.018 33.4068 15.2832C31.4424 15.5959 30.2388 14.7975 29.7959 12.8879C29.7483 11.6009 29.7483 10.3138 29.7959 9.02679C30.0576 7.60883 30.8799 6.79842 32.2628 6.59571Z" fill="white"/>
<path opacity="0.928" fill-rule="evenodd" clip-rule="evenodd" d="M73.1619 4.87972C73.9012 4.86785 74.64 4.87972 75.3785 4.91547C75.4448 4.94322 75.4925 4.99091 75.5215 5.05848C76.9673 9.05123 78.3737 13.0434 79.7401 17.0351C79.0001 17.0588 78.2607 17.035 77.5236 16.9636C77.2204 16.1237 76.9344 15.2776 76.6655 14.4253C75.0687 14.3776 73.4717 14.3776 71.8749 14.4253C71.5889 15.2833 71.3029 16.1413 71.0169 16.9993C70.2784 17.0351 69.5396 17.047 68.8003 17.0351C68.8227 16.7886 68.8824 16.5503 68.979 16.3201C69.8645 13.996 70.6868 11.6722 71.4459 9.34861C72.0251 7.86094 72.5971 6.37133 73.1619 4.87972ZM74.2345 6.88178C74.8683 8.77874 75.4879 10.6616 76.0935 12.5305C74.878 12.6258 73.6624 12.6258 72.4469 12.5305C73.0974 10.6683 73.6932 8.78539 74.2345 6.88178Z" fill="white"/>
<path opacity="0.914" fill-rule="evenodd" clip-rule="evenodd" d="M81.0269 4.87966C83.458 4.86772 85.8891 4.87966 88.3201 4.91541C88.3902 5.5171 88.4145 6.12487 88.3916 6.73872C87.4986 6.70447 86.6162 6.74022 85.7461 6.84597C85.8176 9.61747 85.8411 12.3941 85.8176 15.176C86.6756 15.176 87.5336 15.176 88.3916 15.176C88.3916 15.7957 88.3916 16.4153 88.3916 17.035C85.9127 17.035 83.4344 17.035 80.9554 17.035C80.9554 16.4153 80.9554 15.7957 80.9554 15.176C81.7898 15.176 82.6236 15.176 83.458 15.176C83.458 12.3636 83.458 9.55111 83.458 6.73872C82.6236 6.73872 81.7898 6.73872 80.9554 6.73872C80.934 6.113 80.9576 5.49329 81.0269 4.87966Z" fill="white"/>
<path opacity="0.942" fill-rule="evenodd" clip-rule="evenodd" d="M44.1324 7.88281C46.0613 7.70212 47.4199 8.47671 48.208 10.2066C48.2944 10.4748 48.354 10.7489 48.3868 11.0289C48.4516 12.1996 48.4278 13.3675 48.3153 14.5325C47.8677 15.877 46.962 16.7588 45.5982 17.1781C45.0933 17.1763 44.5809 17.1644 44.0609 17.1423C43.2087 17.0262 42.5532 16.609 42.0946 15.8911C42.0589 17.2494 42.0469 18.6079 42.0589 19.9667C41.32 19.9667 40.5811 19.9667 39.8423 19.9667C39.8423 15.9864 39.8423 12.0061 39.8423 8.02581C40.5339 8.01394 41.2251 8.02581 41.9158 8.06157C41.9737 8.44889 42.0094 8.84215 42.0231 9.24135C42.5239 8.46755 43.227 8.01466 44.1324 7.88281ZM43.7034 9.67036C43.928 9.71248 44.1425 9.71248 44.3469 9.67036C45.374 9.75602 45.9817 10.3042 46.1702 11.3149C46.2346 12.2479 46.2108 13.1774 46.0987 14.1035C45.6408 15.1489 44.8424 15.5661 43.7034 15.3548C42.7373 15.1276 42.2011 14.5198 42.0946 13.5315C42.0334 12.718 42.0573 11.9077 42.1661 11.1004C42.42 10.3337 42.9325 9.85699 43.7034 9.67036Z" fill="white"/>
<path opacity="0.927" fill-rule="evenodd" clip-rule="evenodd" d="M53.1412 7.88283C54.67 7.65932 55.969 8.08833 57.0381 9.16987C57.4 9.61218 57.6383 10.1127 57.7531 10.6714C57.8511 11.5499 57.8868 12.4318 57.8604 13.317C55.882 13.3051 53.9038 13.317 51.9257 13.3527C52.015 15.2047 52.9684 15.9197 54.7858 15.4978C55.3663 15.2387 55.8549 14.8692 56.2516 14.3895C56.6984 14.6427 57.1394 14.9048 57.5744 15.1761C57.5982 15.2118 57.6221 15.2476 57.6459 15.2833C56.8075 16.5429 55.6277 17.1983 54.1065 17.2496C52.7915 17.2975 51.6713 16.8685 50.7459 15.9626C50.2234 15.37 49.9135 14.6788 49.8164 13.889C49.7129 12.7055 49.7844 11.5377 50.0309 10.3854C50.6018 8.96309 51.6386 8.12887 53.1412 7.88283ZM53.5703 9.38438C55.152 9.36936 55.9147 10.1559 55.8583 11.7439C54.5473 11.7559 53.2363 11.7439 51.9257 11.7082C51.9246 10.9896 52.163 10.3461 52.6407 9.77764C52.9423 9.60239 53.2521 9.47125 53.5703 9.38438Z" fill="white"/>
<path opacity="0.931" fill-rule="evenodd" clip-rule="evenodd" d="M63.4374 7.88281C65.9126 7.64764 67.2116 8.76786 67.3343 11.2434C67.382 13.1263 67.382 15.0092 67.3343 16.8921C66.602 17.0324 65.8512 17.08 65.082 17.0351C65.1142 14.9589 65.0784 12.8853 64.9747 10.8144C64.637 10.1171 64.1008 9.78348 63.3659 9.81337C62.5838 9.78326 62.0237 10.1169 61.6856 10.8144C61.5813 12.885 61.5456 14.9585 61.5784 17.0351C60.8396 17.0351 60.1006 17.0351 59.3618 17.0351C59.3618 14.032 59.3618 11.0289 59.3618 8.02581C60.0534 8.01394 60.7446 8.02581 61.4354 8.06156C61.4932 8.44889 61.529 8.84215 61.5426 9.24135C61.683 8.89006 61.9094 8.60405 62.2219 8.38332C62.605 8.14486 63.0101 7.97805 63.4374 7.88281Z" fill="white"/>
</svg>
