<svg width="13" height="12" viewBox="0 0 13 12" fill="none" xmlns="http://www.w3.org/2000/svg">
<path d="M1.07595 6.34766C1.07595 5.97947 1.37435 5.68106 1.74254 5.68106L11.1706 5.68106C11.5388 5.68106 11.8372 5.97947 11.8372 6.34766C11.8372 6.71585 11.5388 7.01425 11.1706 7.01425L1.74254 7.01425C1.37435 7.01425 1.07595 6.71585 1.07595 6.34766Z" fill="#FF4206"/>
<path d="M5.98525 2.10502C5.72491 1.84467 5.7249 1.42256 5.98525 1.16221C6.2456 0.901857 6.66771 0.901857 6.92806 1.16221L11.6421 5.87625C11.9025 6.1366 11.9025 6.55871 11.6421 6.81906L6.92806 11.5331C6.66771 11.7935 6.2456 11.7935 5.98525 11.5331C5.7249 11.2728 5.72491 10.8506 5.98525 10.5903L10.2279 6.34766L5.98525 2.10502Z" fill="#FF4206"/>
</svg>
