<svg width="60" height="61" viewBox="0 0 60 61" fill="none" xmlns="http://www.w3.org/2000/svg">
<rect y="0.5" width="60" height="60" rx="10" fill="white"/>
<path d="M48.7435 38.6624C48.3931 37.7914 47.7201 37.1086 46.8507 36.7386C46.52 36.5978 46.1745 36.5257 45.8274 36.4897V19.0654H47.188C47.4287 19.0654 47.6498 18.9344 47.7644 18.7216C47.879 18.5103 47.8691 18.2533 47.7365 18.0519L43.6318 11.7775C43.3895 11.4075 42.7771 11.4075 42.5348 11.7775L38.4301 18.0519C38.2991 18.2533 38.2876 18.5103 38.4022 18.7216C38.5168 18.9328 38.7379 19.0654 38.9786 19.0654H40.3392V38.2485L38.7592 38.8854V23.3896C38.7592 23.0278 38.4661 22.7347 38.1043 22.7347H36.5897C37.1186 21.6868 37.4248 20.5079 37.4248 19.257C37.4248 14.9866 33.9504 11.511 29.6801 11.511C25.4099 11.511 21.9326 14.9854 21.9326 19.257C21.9326 23.5273 25.4086 27.003 29.6801 27.003C30.9769 27.003 32.1983 26.6788 33.274 26.1123V34.6656C33.1561 34.6165 33.0432 34.5575 32.9187 34.5215L31.694 34.1613V29.0006C31.694 28.6388 31.4009 28.3457 31.0391 28.3457H26.8623C26.5005 28.3457 26.2074 28.6388 26.2074 29.0006V32.5782C24.5112 32.254 21.2564 32.1525 18.9 35.2929C18.8934 35.3027 18.2418 36.0952 16.6929 36.606V35.3944C16.6929 35.0326 16.3998 34.7395 16.038 34.7395L11.6549 34.7428C11.2931 34.7428 11 35.0359 11 35.3977V48.8451C11 49.2069 11.2931 49.5 11.6549 49.5H16.038C16.3998 49.5 16.6929 49.2069 16.6929 48.8451V47.3502L22.6855 45.5852C22.6986 45.5786 24.0804 45.0547 25.333 45.5983L30.7949 47.3993C31.0716 47.5254 32.5796 48.1754 34.3266 48.1754C35.1174 48.1754 35.9573 48.0428 36.7531 47.6679L46.7913 43.2554C47.6623 42.905 48.3451 42.2321 48.7151 41.3627C49.0852 40.4933 49.095 39.5354 48.743 38.6644L48.7435 38.6624ZM40.9959 17.7553H40.1903L43.0834 13.3328L45.9765 17.7553H45.171C44.8091 17.7553 44.516 18.0484 44.516 18.4103V36.6042C44.3949 36.6385 44.2704 36.6631 44.1509 36.7106L41.6491 37.7208V18.4103C41.6491 18.0485 41.356 17.7554 40.9942 17.7554L40.9959 17.7553ZM23.2428 19.2584C23.2428 15.7103 26.131 12.8223 29.6805 12.8223C33.23 12.8223 36.1153 15.7089 36.1153 19.2584C36.1153 22.8079 33.2288 25.6945 29.6805 25.6945C26.1325 25.6945 23.2428 22.8079 23.2428 19.2584ZM34.5846 25.2477C35.0185 24.8908 35.4098 24.4864 35.7569 24.0459H37.4515V39.4138L35.0201 40.3946C35.0168 40.3962 34.8695 40.4568 34.5846 40.5026V40.2177C34.9137 39.8395 35.1625 39.3942 35.3083 38.9013C35.5735 38.0008 35.4704 37.0479 35.0185 36.2194C34.8957 35.9951 34.7483 35.7905 34.5862 35.6005V25.2478L34.5846 25.2477ZM30.3847 29.6572V33.7784L27.5178 32.9368V29.6572H30.3847ZM15.3837 48.1902H12.3105V36.0527H15.3837V48.1902ZM47.5095 40.8483C47.277 41.3951 46.848 41.8176 46.2831 42.0468L36.2105 46.4739C34.0788 47.4792 31.3463 46.2103 31.3182 46.1972C31.2937 46.1858 31.2675 46.1743 31.2429 46.1678L25.8007 44.3782C24.0913 43.6299 22.2739 44.3389 22.2576 44.3503L16.6942 45.9876V37.973C18.9406 37.3491 19.8967 36.1522 19.941 36.0949C22.6441 32.4928 26.68 34.0352 26.9076 34.1236L32.5498 35.7822C33.1147 35.9476 33.5829 36.3274 33.8678 36.8497C34.1527 37.3721 34.2182 37.9697 34.0512 38.5362C33.8858 39.1011 33.506 39.5693 32.9837 39.8542C32.463 40.1391 31.8638 40.2046 31.3382 40.0507L26.9765 38.4592C26.636 38.3348 26.261 38.51 26.1366 38.8505C26.1104 38.9242 26.0973 39.0012 26.0973 39.0748C26.0973 39.3434 26.2626 39.5939 26.5279 39.6905L30.8963 41.2836C33.8794 42.3348 35.4168 41.6635 35.5413 41.6013L44.6448 37.9287C45.7778 37.4719 47.0729 38.0221 47.5313 39.1567C47.7507 39.7036 47.7442 40.3062 47.5117 40.853L47.5095 40.8483ZM31.6292 18.5936C31.6062 18.5903 31.5817 18.5903 31.5587 18.5903H30.3357V16.6452H31.3393C31.7978 16.6763 31.914 17.0087 31.9402 17.1118C32.0139 17.4606 32.3545 17.6866 32.7048 17.6194C33.0601 17.5506 33.2926 17.2068 33.2239 16.8515C33.1289 16.3636 32.6328 15.4205 31.3835 15.3353H30.3357V14.6264C30.3357 14.2645 30.0426 13.9715 29.6807 13.9715C29.3189 13.9715 29.0258 14.2645 29.0258 14.6264V15.337H27.7848C27.2674 15.3763 26.2523 15.7496 26.1131 16.8974C26.1098 16.9236 26.1082 16.9498 26.1082 16.976V18.204C26.1409 18.8524 26.6157 19.8396 27.8322 19.8986H29.0242V21.8437H27.7471C27.621 21.8339 27.459 21.7488 27.4115 21.3918C27.364 21.0333 27.03 20.7844 26.6747 20.8286C26.3161 20.8761 26.064 21.2052 26.1114 21.5654C26.2784 22.8212 27.2395 23.1536 27.7226 23.1536H29.021V23.8888C29.021 24.2506 29.314 24.5437 29.6759 24.5437C30.0377 24.5437 30.3308 24.2506 30.3308 23.8888V23.1536H31.7471C31.8027 23.1536 31.8584 23.1471 31.9108 23.1323C33.0192 22.8458 33.2566 21.8208 33.2304 21.3574V20.2752C33.1846 19.0767 32.1613 18.651 31.6259 18.592L31.6292 18.5936ZM27.865 18.5903C27.5244 18.574 27.4327 18.3316 27.418 18.1728V17.0234C27.4737 16.7205 27.7618 16.6567 27.8322 16.6468H29.0242V18.592H27.865L27.865 18.5903ZM31.6504 21.8437H30.334V19.8986H31.5145C31.6226 19.9166 31.9107 19.9935 31.9238 20.2997V21.3836C31.9271 21.5195 31.8927 21.7487 31.6504 21.8437Z" fill="#F94004"/>
</svg>
