<svg width="88" height="88" viewBox="0 0 88 88" fill="none" xmlns="http://www.w3.org/2000/svg">
<rect width="88" height="88" rx="44" fill="#FF4206"/>
<path d="M75.7544 45.6172C75.13 45.5537 74.5858 46.0158 74.523 46.6473C73.3091 59.3541 64.4419 69.9558 52.3301 73.3813C51.5976 71.7479 49.9825 70.6084 48.1058 70.6084C45.5419 70.6084 43.4629 72.711 43.4629 75.3039C43.4629 77.8969 45.5419 79.9994 48.1058 79.9994C50.5511 79.9994 52.5359 78.0768 52.7139 75.6461C65.8329 72.0336 75.4577 60.5894 76.7722 46.8629C76.8245 46.2385 76.3718 45.6771 75.7544 45.6172ZM48.1061 77.713C46.7945 77.713 45.7201 76.63 45.7201 75.2999C45.7201 73.9734 46.791 72.8869 48.1061 72.8869C49.4178 72.8869 50.4922 73.9699 50.4922 75.2999C50.4922 76.63 49.4178 77.713 48.1061 77.713Z" fill="white"/>
<path d="M40.3278 74.5073C27.7844 72.8045 17.5626 63.5656 14.5466 51.3675C16.2186 50.6462 17.3896 48.9891 17.3896 47.0716C17.3896 44.4856 15.2874 42.3887 12.6948 42.3887C10.1022 42.3887 8 44.4856 8 47.0716C8 49.5133 9.88706 51.5047 12.2786 51.7087C15.4567 64.913 26.4726 74.9297 40.0174 76.7662C40.0703 76.7767 40.1162 76.7767 40.1726 76.7767C40.7335 76.7767 41.2308 76.3616 41.3014 75.7952C41.3931 75.1654 40.9521 74.5953 40.3278 74.5073ZM10.2855 47.0711C10.2855 45.7482 11.3683 44.6646 12.6981 44.6646C14.0244 44.6646 15.1108 45.7447 15.1108 47.0711C15.1108 48.3941 14.028 49.4777 12.6981 49.4777C11.3683 49.4742 10.2855 48.3941 10.2855 47.0711Z" fill="white"/>
<path d="M12.1784 40.2285C12.2309 40.2388 12.2938 40.2388 12.3497 40.2388C12.8952 40.2388 13.3776 39.8425 13.4686 39.2945C15.2866 27.5422 24.2093 17.8025 35.8102 14.7585C36.5969 16.1888 38.1178 17.1745 39.8835 17.1745C42.4533 17.1745 44.5371 15.1204 44.5371 12.5873C44.5371 10.0541 42.4533 8 39.8835 8C37.3136 8 35.2299 10.0541 35.2299 12.5873V12.6045C22.776 15.8786 13.1818 26.342 11.2377 38.9598C11.1398 39.5663 11.563 40.1423 12.1784 40.2285ZM39.8904 10.2302C41.2051 10.2302 42.282 11.2882 42.282 12.5876C42.282 13.8835 41.2086 14.945 39.8904 14.945C38.5758 14.945 37.4989 13.887 37.4989 12.5876C37.4989 11.2882 38.5653 10.2302 39.8904 10.2302Z" fill="white"/>
<path d="M75.3389 34.4491C75.2127 34.4491 75.0971 34.4762 74.9814 34.483C71.2136 22.6444 60.7338 13.9832 47.972 12.3082C47.3517 12.2302 46.7804 12.6472 46.6962 13.2438C46.6156 13.8439 47.0467 14.3965 47.6635 14.4779C59.5523 16.0407 69.3243 24.1189 72.8219 35.1573C71.5285 35.9641 70.6699 37.354 70.6699 38.9508C70.6699 41.4425 72.7588 43.463 75.3349 43.463C77.911 43.463 80 41.4425 80 38.9508C80.0035 36.4625 77.9115 34.4491 75.3389 34.4491ZM75.3389 41.2801C74.021 41.2801 72.9415 40.2394 72.9415 38.9613C72.9415 37.6865 74.0175 36.6424 75.3389 36.6424C76.6568 36.6424 77.7363 37.6832 77.7363 38.9613C77.7328 40.236 76.6673 41.2801 75.3389 41.2801Z" fill="white"/>
</svg>
