<svg width="74" height="77" viewBox="0 0 74 77" fill="none" xmlns="http://www.w3.org/2000/svg">
<path fill-rule="evenodd" clip-rule="evenodd" d="M30.7788 48.9838L18.6813 52.2239C18.1266 52.3762 17.6807 53.0179 17.6807 53.6536V61.2022C17.6807 61.8355 18.1266 62.2379 18.6813 62.0893L30.7668 58.8528V56.0574L20.7407 58.7452V54.4597L30.7728 51.7719L30.7788 48.9838ZM55.7884 42.3731C55.6675 42.3477 55.5358 42.3477 55.3968 42.3864L47.673 44.4566L50.9156 46.3782L53.352 45.722V47.8176L56.4035 49.6304V43.2807C56.4035 42.8021 56.1534 42.4553 55.7884 42.3731Z" fill="black"/>
<path fill-rule="evenodd" clip-rule="evenodd" d="M18.1917 18.4559L8.33239 21.1002C4.2862 22.1831 0.96875 26.3694 0.96875 30.4289V69.9712C0.96875 74.0247 4.28741 76.4417 8.33239 75.3589L31.7237 69.089C31.0131 68.0895 30.7533 67.3463 30.7533 66.2767L8.33239 72.2831C5.92256 72.9297 4.04691 71.5471 4.04691 69.1458V29.6035C4.04691 27.2058 5.92256 24.8213 8.33239 24.1711L18.1917 21.5353V18.4559ZM67.9437 5.45926C67.25 5.42905 66.514 5.51002 65.7587 5.71064L55.9018 8.35372V11.4319L65.7587 8.78758C68.1637 8.14585 70.0453 9.52359 70.0453 11.9237V51.466C70.0453 53.8626 68.1637 56.2494 65.7587 56.8972L62.8328 57.6779L61.2387 61.1839L65.7587 59.9693C69.8061 58.8865 73.1223 54.6892 73.1223 50.6406V11.0983C73.1235 7.80021 70.9336 5.59099 67.9437 5.45926Z" fill="black"/>
<path fill-rule="evenodd" clip-rule="evenodd" d="M37.0443 0.517391C28.9797 2.67464 22.4463 10.9652 22.4463 19.0226C22.4463 22.8923 23.9823 26.2037 26.7197 28.2063C29.4595 30.2076 33.1709 30.7551 37.0443 29.7182C40.914 28.6788 44.6351 26.1421 47.3725 22.6748C50.111 19.199 51.6459 15.0767 51.6459 11.1997C51.6459 7.32752 50.1098 4.0282 47.3652 2.02202C44.6279 0.0194716 40.914 -0.523163 37.0443 0.517391ZM37.4395 6.43803C37.6908 6.38244 37.9362 6.35223 38.1755 6.34498C40.1708 6.29422 41.3926 7.98618 40.914 10.1265C40.4415 12.268 38.4401 14.0494 36.4521 14.099C34.4556 14.1558 33.2289 12.4638 33.7063 10.3175C34.1148 8.47926 35.6774 6.84773 37.4395 6.43803ZM33.5939 17.4478L40.4983 15.5976C42.1032 15.1625 43.545 15.8127 44.0055 17.153L44.5795 18.8195C45.1584 20.526 43.7094 21.9871 41.6839 23.0434C38.6105 24.6544 35.5517 25.4798 32.4119 25.5233C30.384 25.562 28.9253 24.8755 29.5163 22.8621L30.0952 20.8777C30.5459 19.2921 31.9877 17.8757 33.5939 17.4478Z" fill="#FF4206"/>
<path fill-rule="evenodd" clip-rule="evenodd" d="M55.7901 27.9474C55.6693 27.9221 55.5375 27.9281 55.3985 27.9595L18.6843 37.7971C18.1295 37.9554 17.6836 38.5923 17.6836 39.2328V46.7741C17.6836 47.4086 18.1295 47.811 18.6843 47.6588L31.1226 44.3304L32.6526 41.1278L20.7436 44.3183V40.0377L53.3549 31.3011V35.5806L39.1364 39.3911L42.3765 41.3163L55.3998 37.8297C55.9545 37.6786 56.4065 37.0369 56.4065 36.4V28.8538C56.4053 28.3765 56.1551 28.0296 55.7901 27.9474Z" fill="black"/>
<path d="M37.7805 44.7233L56.7896 55.4624L51.7536 57.0867C51.0479 57.3139 50.7264 58.1369 51.0914 58.7799L56.5818 68.4844L50.7155 70.1667L44.5036 59.8796C44.2329 59.4276 43.6842 59.2077 43.173 59.3575L37.824 60.9818L37.7805 44.7233ZM35.5822 41.928L33.7198 45.8255C33.6497 45.9766 33.6134 46.1397 33.6134 46.3101L33.5881 66.4323C33.5748 67.2251 34.3374 67.804 35.0927 67.578L41.1028 65.7652L47.3171 76.0511C47.5939 76.5043 48.1401 76.7122 48.6574 76.5611L56.8005 74.219C57.1232 74.1235 57.3879 73.8975 57.5317 73.5954L59.3493 69.7679C59.5572 69.4102 59.5572 68.9751 59.3493 68.615L55.4349 61.8822L57.8592 61.2259C58.1734 61.1389 58.4006 60.78 58.5324 60.4827L60.3754 56.4184L60.3814 56.4111C60.3875 56.4051 60.3875 56.3978 60.3935 56.3869C60.6316 55.8818 60.4829 55.2775 60.0346 54.9379L37.3382 41.4868C36.5647 41.0215 35.8722 41.3309 35.5822 41.928Z" fill="#FF4206"/>
</svg>
