<svg width="24" height="24" viewBox="0 0 24 24" fill="none" xmlns="http://www.w3.org/2000/svg">
<path d="M15.1071 12.0107L10.0071 9.1125V14.9089L15.1071 12.0107ZM20.5714 0H3.42857C1.5375 0 0 1.5375 0 3.42857V20.5714C0 22.4625 1.5375 24 3.42857 24H20.5714C22.4625 24 24 22.4625 24 20.5714V3.42857C24 1.5375 22.4625 0 20.5714 0ZM21.3429 7.29107C21.75 8.82321 21.75 12.0161 21.75 12.0161C21.75 12.0161 21.75 15.2089 21.3429 16.7357C21.1179 17.5821 20.4589 18.2196 19.6179 18.4446C18.1018 18.8571 12 18.8571 12 18.8571C12 18.8571 5.89821 18.8571 4.38214 18.45C3.54107 18.225 2.88214 17.5875 2.65714 16.7411C2.25 15.2089 2.25 12.0161 2.25 12.0161C2.25 12.0161 2.25 8.81786 2.65714 7.29107C2.88214 6.44464 3.54107 5.78036 4.38214 5.55536C5.89821 5.14286 12 5.14286 12 5.14286C12 5.14286 18.1018 5.14286 19.6179 5.55536C20.4589 5.78036 21.1179 6.44464 21.3429 7.29107Z" fill="#FF4206"/>
</svg>
