<svg width="21" height="22" viewBox="0 0 21 22" fill="none" xmlns="http://www.w3.org/2000/svg">
<path d="M13.2188 11.0094L8.75625 8.47344V13.5453L13.2188 11.0094ZM18 0.5H3C1.34531 0.5 0 1.84531 0 3.5V18.5C0 20.1547 1.34531 21.5 3 21.5H18C19.6547 21.5 21 20.1547 21 18.5V3.5C21 1.84531 19.6547 0.5 18 0.5ZM18.675 6.87969C19.0312 8.22031 19.0312 11.0141 19.0312 11.0141C19.0312 11.0141 19.0312 13.8078 18.675 15.1437C18.4781 15.8844 17.9016 16.4422 17.1656 16.6391C15.8391 17 10.5 17 10.5 17C10.5 17 5.16094 17 3.83438 16.6437C3.09844 16.4469 2.52187 15.8891 2.325 15.1484C1.96875 13.8078 1.96875 11.0141 1.96875 11.0141C1.96875 11.0141 1.96875 8.21563 2.325 6.87969C2.52187 6.13906 3.09844 5.55781 3.83438 5.36094C5.16094 5 10.5 5 10.5 5C10.5 5 15.8391 5 17.1656 5.36094C17.9016 5.55781 18.4781 6.13906 18.675 6.87969Z" fill="#FF4206"/>
</svg>
