<svg width="12" height="10" viewBox="0 0 12 10" fill="none" xmlns="http://www.w3.org/2000/svg">
<g clip-path="url(#clip0_1825_3228)">
<path d="M10.875 9.2853H1.125C0.5025 9.2853 0 8.80672 0 8.21387V1.7853C0 1.19244 0.5025 0.713867 1.125 0.713867H10.875C11.4975 0.713867 12 1.19244 12 1.7853V8.21387C12 8.80672 11.4975 9.2853 10.875 9.2853ZM1.125 1.42815C0.915 1.42815 0.75 1.5853 0.75 1.7853V8.21387C0.75 8.41387 0.915 8.57101 1.125 8.57101H10.875C11.085 8.57101 11.25 8.41387 11.25 8.21387V1.7853C11.25 1.5853 11.085 1.42815 10.875 1.42815H1.125Z" fill="#FF4206"/>
<path d="M6.00055 6.39974C5.47555 6.39974 4.99555 6.19974 4.63555 5.83545L0.698053 1.84974C0.555553 1.70688 0.563053 1.47831 0.713053 1.34259C0.863053 1.20688 1.10305 1.21402 1.24555 1.35688L5.18305 5.34259C5.61055 5.77831 6.39055 5.77831 6.81805 5.34259L10.7556 1.36402C10.8981 1.22116 11.1381 1.21402 11.2881 1.34974C11.4381 1.48545 11.4456 1.71402 11.3031 1.85688L7.36555 5.84259C7.00555 6.20688 6.52555 6.40688 6.00055 6.40688V6.39974Z" fill="#FF4206"/>
</g>
<defs>
<clipPath id="clip0_1825_3228">
<rect width="12" height="10" fill="white"/>
</clipPath>
</defs>
</svg>
