<svg width="15" height="16" viewBox="0 0 15 16" fill="none" xmlns="http://www.w3.org/2000/svg">
<path d="M6.875 11.4375C6.75068 11.4375 6.63145 11.4869 6.54354 11.5748C6.45564 11.6627 6.40625 11.7819 6.40625 11.9062C6.40625 12.0306 6.45564 12.1498 6.54354 12.2377C6.63145 12.3256 6.75068 12.375 6.875 12.375H8.125C8.24932 12.375 8.36855 12.3256 8.45646 12.2377C8.54436 12.1498 8.59375 12.0306 8.59375 11.9062C8.59375 11.7819 8.54436 11.6627 8.45646 11.5748C8.36855 11.4869 8.24932 11.4375 8.125 11.4375H6.875Z" fill="#FF4206"/>
<path fill-rule="evenodd" clip-rule="evenodd" d="M5 1.75C4.62704 1.75 4.26935 1.89816 4.00563 2.16188C3.74191 2.4256 3.59375 2.78329 3.59375 3.15625V12.8438C3.59375 13.2167 3.74191 13.5744 4.00563 13.8381C4.26935 14.1018 4.62704 14.25 5 14.25H10C10.373 14.25 10.7306 14.1018 10.9944 13.8381C11.2581 13.5744 11.4062 13.2167 11.4062 12.8438V3.15625C11.4062 2.78329 11.2581 2.4256 10.9944 2.16188C10.7306 1.89816 10.373 1.75 10 1.75H5ZM4.53125 3.15625C4.53125 3.03193 4.58064 2.9127 4.66854 2.82479C4.75645 2.73689 4.87568 2.6875 5 2.6875H10C10.1243 2.6875 10.2435 2.73689 10.3315 2.82479C10.4194 2.9127 10.4688 3.03193 10.4688 3.15625V12.8438C10.4688 12.9681 10.4194 13.0873 10.3315 13.1752C10.2435 13.2631 10.1243 13.3125 10 13.3125H5C4.87568 13.3125 4.75645 13.2631 4.66854 13.1752C4.58064 13.0873 4.53125 12.9681 4.53125 12.8438V3.15625Z" fill="#FF4206"/>
</svg>
