<svg width="14" height="14" viewBox="0 0 14 14" fill="none" xmlns="http://www.w3.org/2000/svg">
<path fill-rule="evenodd" clip-rule="evenodd" d="M1.05078 6.9998C1.05078 7.78117 1.20468 8.55488 1.5037 9.27677C1.80271 9.99866 2.24099 10.6546 2.7935 11.2071C3.346 11.7596 4.00193 12.1979 4.72381 12.4969C5.4457 12.7959 6.21942 12.9498 7.00078 12.9498C7.78215 12.9498 8.55586 12.7959 9.27775 12.4969C9.99963 12.1979 10.6556 11.7596 11.2081 11.2071C11.7606 10.6546 12.1988 9.99866 12.4979 9.27677C12.7969 8.55488 12.9508 7.78117 12.9508 6.9998C12.9508 5.42177 12.3239 3.90836 11.2081 2.79252C10.0922 1.67668 8.57882 1.0498 7.00078 1.0498C5.42274 1.0498 3.90934 1.67668 2.7935 2.79252C1.67765 3.90836 1.05078 5.42177 1.05078 6.9998ZM12.2508 6.9998C12.2508 8.39219 11.6977 9.72755 10.7131 10.7121C9.72853 11.6967 8.39317 12.2498 7.00078 12.2498C5.60839 12.2498 4.27304 11.6967 3.28847 10.7121C2.3039 9.72755 1.75078 8.39219 1.75078 6.9998C1.75078 5.60742 2.3039 4.27206 3.28847 3.28749C4.27304 2.30293 5.60839 1.7498 7.00078 1.7498C8.39317 1.7498 9.72853 2.30293 10.7131 3.28749C11.6977 4.27206 12.2508 5.60742 12.2508 6.9998Z" fill="#FF4206"/>
<path fill-rule="evenodd" clip-rule="evenodd" d="M4.55078 6.99941C4.55078 10.0766 5.56018 12.5994 7.00078 12.5994C8.44138 12.5994 9.45078 10.0766 9.45078 6.99941C9.45078 3.92221 8.44138 1.39941 7.00078 1.39941C5.56018 1.39941 4.55078 3.92221 4.55078 6.99941ZM8.75078 6.99941C8.75078 9.72171 7.87928 11.8994 7.00078 11.8994C6.12228 11.8994 5.25078 9.72171 5.25078 6.99941C5.25078 4.27711 6.12228 2.09941 7.00078 2.09941C7.87928 2.09941 8.75078 4.27711 8.75078 6.99941Z" fill="#FF4206"/>
<path d="M2.61489 3.71862L3.08389 3.19922C3.15856 3.26642 3.23859 3.33199 3.32399 3.39592C4.24659 4.08752 5.70259 4.50892 7.28949 4.50892C8.64259 4.50892 9.90539 4.20302 10.828 3.67592C11.0405 3.55561 11.2414 3.4157 11.4279 3.25802L11.8829 3.79002C11.6738 3.96875 11.4382 4.13302 11.1759 4.28282C10.142 4.87432 8.75949 5.20892 7.28949 5.20892C5.56049 5.20892 3.95609 4.74482 2.90399 3.95592C2.80413 3.88092 2.70767 3.80221 2.61489 3.71862ZM2.61489 10.2902L3.08389 10.8082C3.15856 10.7406 3.23859 10.6752 3.32399 10.6122C4.24659 9.92062 5.70259 9.49922 7.28949 9.49922C8.64259 9.49922 9.90539 9.80442 10.828 10.3322C11.0529 10.4615 11.2529 10.6006 11.4279 10.7494L11.8829 10.2174C11.6631 10.0315 11.4264 9.8665 11.1759 9.72462C10.142 9.13382 8.75949 8.79922 7.28949 8.79922C5.56049 8.79922 3.95609 9.26332 2.90399 10.0515C2.80132 10.1285 2.70496 10.2086 2.61489 10.2902ZM1.40039 7.35022V6.65022H12.6004V7.35022H1.40039Z" fill="#FF4206"/>
</svg>
