<svg width="33" height="33" viewBox="0 0 33 33" fill="none" xmlns="http://www.w3.org/2000/svg">
<g clip-path="url(#clip0_2238_984)">
<path d="M17.3869 18.7869H21.5491C22.7329 18.7869 23.4823 18.1351 23.4823 17.0888C23.4823 16.1029 22.7329 15.392 21.5491 15.392H17.3869C17.2494 15.392 17.1298 15.5103 17.1298 15.6285V18.5504C17.1504 18.6879 17.2481 18.7869 17.3869 18.7869ZM17.3869 25.5189H21.6879C23.0093 25.5189 23.7986 24.8479 23.7986 23.6626C23.7986 22.6369 23.0492 21.8064 21.6879 21.8064H17.3869C17.2494 21.8064 17.1298 21.926 17.1298 22.0443V25.2618C17.1504 25.4199 17.2481 25.5189 17.3869 25.5189ZM32.6151 0.0731473L20.3047 12.3519H22.3177C25.4541 12.3519 27.3089 14.325 27.3089 16.4769C27.3089 18.175 26.1649 19.4194 24.9412 19.9708C24.7446 20.0505 24.7446 20.3269 24.9604 20.4053C26.3808 20.958 27.3873 22.4403 27.3873 24.1755C27.3873 26.623 25.7511 28.5783 22.5748 28.5783H13.8546C13.7171 28.5783 13.5974 28.46 13.5974 28.3418V19.044L0.0853149 32.5053C-0.093435 32.684 0.0261899 32.9989 0.28194 32.9989H32.7746C32.832 32.9982 32.8868 32.9751 32.9274 32.9345C32.968 32.8939 32.9911 32.839 32.9918 32.7816V0.250522C33.0509 0.0332723 32.7746 -0.0849777 32.6164 0.0717723L32.6151 0.0731473Z" fill="#A0A5B4"/>
</g>
<defs>
<clipPath id="clip0_2238_984">
<rect width="33" height="33" fill="white"/>
</clipPath>
</defs>
</svg>
