<svg width="34" height="33" viewBox="0 0 34 33" fill="none" xmlns="http://www.w3.org/2000/svg">
<path d="M22.2262 4.68784C22.1997 4.68784 22.1465 4.71466 22.1232 4.71466C22.0998 4.71466 21.7396 4.81159 21.1754 4.98484C20.6133 3.39569 19.6135 1.93028 17.8455 1.93028H17.6925C17.3143 1.41466 16.714 1.07228 16.0308 1.03516H16.0255C11.9019 1.03516 9.93097 6.03156 9.31366 8.56844C7.72841 9.03869 6.57453 9.38828 6.44597 9.43675C5.54922 9.71106 5.52479 9.73581 5.42066 10.5577C5.32079 11.1528 2.99072 28.6809 2.99072 28.6809L20.9958 31.9634L22.2262 4.68784ZM18.2535 3.0265C19.1747 3.12138 19.7687 4.14334 20.1512 5.28803C19.6879 5.43447 19.1747 5.58606 18.6137 5.75931V5.43447C18.6148 5.38394 18.6158 5.32412 18.6158 5.26431C18.6158 4.46303 18.483 3.69269 18.2387 2.97081L18.2535 3.02238V3.0265ZM17.5374 5.90575V6.08003C16.5365 6.37909 15.4358 6.70394 14.3584 7.02878C14.6389 5.37156 15.6727 3.99278 17.0997 3.21419L17.1273 3.20078C17.3908 3.92781 17.5427 4.76622 17.5427 5.63969C17.5427 5.73353 17.5406 5.82737 17.5374 5.92122V5.90781V5.90575ZM15.898 2.10559C16.0998 2.10559 16.2879 2.17056 16.4377 2.28091L16.4356 2.27884C14.5773 3.35959 13.3044 5.22925 13.1078 7.39797L13.1057 7.42272C12.2345 7.69703 11.3887 7.94453 10.5972 8.16728C11.2857 5.86656 12.9517 2.11694 15.8969 2.11694L15.898 2.10559ZM16.6152 15.6047C15.9267 15.2747 15.1192 15.0746 14.266 15.0581H14.2607C12.3397 15.0581 12.2642 16.2255 12.2642 16.5287C12.2642 18.1168 16.5663 18.7386 16.5663 22.4944C16.5812 22.6264 16.5886 22.7801 16.5886 22.9348C16.5886 25.3675 14.5571 27.3393 12.0507 27.3393C12.0485 27.3393 12.0453 27.3393 12.0432 27.3393C11.9901 27.3413 11.9285 27.3413 11.8668 27.3413C10.0861 27.3413 8.48066 26.6163 7.34591 25.4541L7.34272 25.451L8.20016 22.7626C9.02253 23.4638 10.0542 23.9526 11.1932 24.1321L11.2283 24.1362C11.241 24.1362 11.2548 24.1372 11.2697 24.1372C11.9561 24.1372 12.5139 23.601 12.5235 22.9358C12.5235 20.8496 8.99916 20.7516 8.99916 17.3176C8.99916 17.2969 8.99916 17.2722 8.99916 17.2474C8.99916 14.1269 11.6055 11.5983 14.8195 11.5983C15.0267 11.5983 15.2318 11.6086 15.4337 11.6292L15.4082 11.6271C15.49 11.623 15.5856 11.6199 15.6823 11.6199C16.4855 11.6199 17.2484 11.7942 17.9305 12.1056L17.8987 12.0922L16.6438 15.5913L16.6152 15.6047ZM21.4304 31.9376L31.011 29.9256C31.011 29.9256 27.5536 7.22781 27.526 7.07725C27.5068 6.94009 27.39 6.83491 27.2465 6.82975C27.118 6.82975 24.6848 6.65444 24.6848 6.65444C24.6848 6.65444 22.9923 5.01269 22.7745 4.83634C22.7288 4.79613 22.6757 4.76416 22.6172 4.7425L22.614 4.74147L21.4007 31.9376H21.4304Z" fill="#A0A5B4"/>
</svg>
