<svg width="34" height="35" viewBox="0 0 34 35" fill="none" xmlns="http://www.w3.org/2000/svg">
<path fill-rule="evenodd" clip-rule="evenodd" d="M32.0781 12.6964C29.5162 10.0436 25.3614 10.0436 22.7995 12.6964L12.3598 23.5066C11.7189 24.1684 11.7189 25.244 12.3598 25.9077C13.0007 26.5713 14.0394 26.5713 14.6803 25.9077L25.1183 15.0992C26.3984 13.7719 28.4775 13.7719 29.7576 15.0992C31.0394 16.4247 31.0394 18.5759 29.7576 19.9032L19.5202 30.504C20.8003 31.8295 22.8777 31.8295 24.1595 30.504L32.0781 22.3043C34.64 19.6515 34.64 15.3492 32.0781 12.6964ZM28.5982 16.2998C27.9573 15.6361 26.9186 15.6361 26.2777 16.2998L15.8397 27.1082C14.5579 28.4355 12.4805 28.4355 11.2004 27.1082C10.5595 26.4446 9.52085 26.4446 8.87995 27.1082C8.23905 27.7719 8.23905 28.8475 8.87995 29.5094C11.4419 32.1639 15.5967 32.1639 18.1603 29.5094L28.5982 18.7009C29.2391 18.039 29.2391 16.9616 28.5982 16.2998ZM25.1183 5.48959C22.5564 2.8368 18.4016 2.8368 15.8397 5.48959L5.40004 16.2998C4.76084 16.9616 4.76084 18.039 5.40004 18.7009C6.04094 19.3645 7.07964 19.3645 7.72054 18.7009L18.1603 7.89242C19.4404 6.56514 21.5177 6.56514 22.7978 7.89242C23.4387 8.55606 24.4774 8.55606 25.1183 7.89242C25.7592 7.22877 25.7592 6.15323 25.1183 5.48959ZM21.6384 9.09299C20.9975 8.42933 19.9588 8.42933 19.3196 9.09299L8.87995 19.9032C7.59815 21.2287 5.52245 21.2287 4.24065 19.9032C2.95885 18.5759 2.95885 16.4248 4.24065 15.0975L14.4797 4.49753C13.198 3.17024 11.1205 3.17024 9.83874 4.49753L1.92015 12.6964C-0.64005 15.3492 -0.64005 19.6515 1.92015 22.3043C4.48375 24.9588 8.63685 24.9588 11.2004 22.3043L21.6384 11.4958C22.2793 10.8322 22.2793 9.75662 21.6384 9.09299Z" fill="#A0A5B4"/>
</svg>
