<svg width="34" height="35" viewBox="0 0 34 35" fill="none" xmlns="http://www.w3.org/2000/svg">
<path d="M0 10.6115C0 10.6115 1.34774 10.4365 2.24623 11.2559C2.80082 11.7614 2.96246 12.5669 2.96246 12.5669L4.79734 19.921L6.32344 13.9021C6.4717 13.2624 6.7398 12.4711 7.16341 11.9364C7.70407 11.2553 8.80154 11.2123 8.91859 11.2123C9.03564 11.2123 10.1326 11.2553 10.6727 11.9364C11.0963 12.4711 11.3644 13.2618 11.5132 13.9021L13.0393 19.921L14.8736 12.5669C14.8736 12.5669 15.0358 11.7614 15.5904 11.2559C16.4889 10.4365 17.8361 10.6115 17.8361 10.6115L14.3224 24.3551C14.3224 24.3551 13.1636 24.4417 12.5833 24.1359C11.8214 23.7342 11.4597 23.4244 10.9982 21.5539C10.7649 20.5972 10.5345 19.6398 10.307 18.6816L10.2206 18.3207C9.97705 17.2983 9.73403 16.2798 9.56292 15.5712L9.47931 15.2269C9.40239 14.9148 9.34944 14.7048 9.33049 14.6417C9.27866 14.469 9.21679 14.0576 8.91803 14.0576C8.62597 14.0576 8.55853 14.4696 8.50557 14.6417C8.48607 14.7048 8.43312 14.9142 8.35675 15.2269L8.27315 15.5712C8.09518 16.3076 7.91868 17.0443 7.74364 17.7814L7.6578 18.1405C7.38789 19.2793 7.11478 20.4173 6.83846 21.5545C6.37695 23.4244 6.01466 23.7348 5.25272 24.1359C4.67249 24.4417 3.5137 24.3551 3.5137 24.3551L0 10.6115ZM21.1792 12.8911V13.3874H21.1803V21.6836C21.1742 23.386 21.0142 23.7641 20.3186 24.156C19.778 24.4606 18.9508 24.3453 18.9508 24.3453V15.0519C18.9508 14.5855 19.0913 14.2796 19.6091 14.0054C19.9184 13.8413 20.2066 13.7156 20.5065 13.5297C20.9161 13.2773 21.124 12.9772 21.1697 12.906L21.1792 12.8911ZM22.2951 10.6574C22.2951 10.6574 24.1105 10.3264 25.0095 11.2025C25.515 11.6954 26.0741 12.5354 26.2006 12.7293L26.2246 12.766L26.2274 12.7706L27.8103 15.2126C27.8867 15.3394 27.987 15.4777 28.1475 15.4777C28.3075 15.4777 28.4084 15.34 28.4853 15.2126L30.0677 12.7706L30.0705 12.766L30.0945 12.7293C30.221 12.5354 30.78 11.6954 31.2861 11.2019C32.1846 10.3264 34 10.6569 34 10.6569L29.6987 17.5054L33.9883 24.3315C33.9883 24.3315 32.1311 24.5874 31.2321 23.7113C30.6569 23.1513 30.0677 22.2396 30.0677 22.2396L28.4848 19.7982C28.4084 19.6708 28.3075 19.5325 28.1475 19.5325C27.987 19.5325 27.8867 19.6702 27.8098 19.7982L26.2274 22.2396C26.2274 22.2396 25.6706 23.1513 25.0959 23.7113C24.1969 24.5874 22.3062 24.3315 22.3062 24.3315L26.5958 17.5054L22.2951 10.6574ZM21.1748 10.596H21.1803C21.1803 11.5083 21.0967 12.0505 20.5616 12.4717C20.3132 12.6682 20.0393 12.8279 19.7479 12.9462C19.4523 13.0649 19.1817 13.241 18.9508 13.4649C18.9508 11.8033 19.1866 11.2014 19.8203 10.8451C20.2144 10.6236 20.8615 10.5983 21.0939 10.596H21.1748Z" fill="#A0A5B4"/>
</svg>
