<svg width="34" height="35" viewBox="0 0 34 35" fill="none" xmlns="http://www.w3.org/2000/svg">
<path fill-rule="evenodd" clip-rule="evenodd" d="M30.8308 7.04102H3.15554C1.40412 7.04102 -0.013699 8.51484 9.98749e-05 10.3035V21.1783C9.98749e-05 22.9812 1.41802 24.4407 3.16944 24.4407H16.2773L22.2683 27.8749L20.9061 24.4407H30.8308C32.5822 24.4407 34 22.9812 34 21.1783V10.3035C34 8.50053 32.5822 7.04102 30.8308 7.04102ZM2.5718 9.5594C2.18259 9.58802 1.89068 9.73111 1.69608 10.003C1.50148 10.2605 1.43198 10.5896 1.47368 10.9617C2.29379 16.3276 3.0583 19.9477 3.76721 21.8222C4.04522 22.509 4.36492 22.8382 4.74022 22.8096C5.32402 22.7666 6.01903 21.9367 6.83915 20.3198C7.27005 19.404 7.93726 18.0304 8.84078 16.1988C9.59135 18.9031 10.62 20.9351 11.9127 22.2944C12.2742 22.6807 12.6494 22.8525 13.0108 22.8238C13.3306 22.7952 13.5807 22.6235 13.7475 22.3087C13.8865 22.0368 13.9421 21.722 13.9143 21.3643C13.8309 20.0622 13.9561 18.245 14.3036 15.9126C14.6649 13.5087 15.1097 11.7773 15.6519 10.747C15.7631 10.5324 15.8047 10.3178 15.7909 10.0602C15.7631 9.7311 15.624 9.45923 15.36 9.2446C15.0959 9.02997 14.8039 8.9298 14.4842 8.95842C14.0811 8.98704 13.7753 9.18736 13.5668 9.58802C12.7051 11.2049 12.0934 13.8235 11.7321 17.458C11.2038 16.0843 10.759 14.4674 10.4115 12.5643C10.2586 11.7201 9.88332 11.3194 9.27166 11.3623C8.85467 11.3909 8.50717 11.6771 8.22917 12.2209L5.18503 18.1877C4.68462 16.1129 4.21201 13.5802 3.78111 10.5896C3.68381 9.84558 3.2807 9.50215 2.5718 9.5594ZM29.3574 10.5897C30.3444 10.8043 31.0811 11.3481 31.5814 12.2495C32.0263 13.0222 32.2486 13.9523 32.2486 15.0684C32.2486 16.5422 31.8873 17.8873 31.1644 19.1178C30.3304 20.5488 29.2462 21.2642 27.8979 21.2642C27.6616 21.2642 27.4114 21.2356 27.1473 21.1783C26.1604 20.9637 25.4237 20.42 24.9232 19.5185C24.4785 18.7315 24.2561 17.7871 24.2561 16.6853C24.2561 15.2115 24.6175 13.8664 25.3403 12.6502C26.1882 11.2193 27.2724 10.5038 28.6068 10.5038C28.8431 10.5038 29.0933 10.5325 29.3574 10.5897ZM28.7737 18.3308C29.288 17.8586 29.6354 17.1575 29.8301 16.2131C29.8857 15.884 29.9273 15.5263 29.9273 15.1543C29.9273 14.7393 29.8439 14.2957 29.6771 13.8521C29.4686 13.2941 29.1906 12.9936 28.857 12.9221C28.3566 12.8219 27.8701 13.1081 27.4114 13.8092C27.0361 14.353 26.7998 14.9253 26.6747 15.512C26.6052 15.8411 26.5773 16.1989 26.5773 16.5566C26.5773 16.9715 26.6608 17.4151 26.8276 17.8586C27.0361 18.4167 27.3141 18.7172 27.6477 18.7888C27.9952 18.8603 28.3705 18.7029 28.7737 18.3308ZM22.866 12.2495C22.3656 11.3481 21.615 10.8043 20.642 10.5897C20.3778 10.5325 20.1277 10.5038 19.8913 10.5038C18.557 10.5038 17.4728 11.2193 16.6248 12.6502C15.902 13.8664 15.5406 15.2115 15.5406 16.6853C15.5406 17.7871 15.7631 18.7315 16.2078 19.5185C16.7083 20.42 17.445 20.9637 18.4318 21.1783C18.6959 21.2356 18.9461 21.2642 19.1825 21.2642C20.5308 21.2642 21.615 20.5488 22.449 19.1178C23.1719 17.8873 23.5332 16.5422 23.5332 15.0684C23.5332 13.9523 23.3108 13.0222 22.866 12.2495ZM21.1146 16.2131C20.92 17.1575 20.5725 17.8586 20.0581 18.3308C19.6551 18.7029 19.2798 18.8603 18.9323 18.7888C18.5986 18.7172 18.3206 18.4167 18.1122 17.8586C17.9453 17.4151 17.8619 16.9715 17.8619 16.5566C17.8619 16.1989 17.8897 15.8411 17.9593 15.512C18.0843 14.9253 18.3206 14.353 18.6959 13.8092C19.1547 13.1081 19.6412 12.8219 20.1416 12.9221C20.4752 12.9936 20.7532 13.2941 20.9617 13.8521C21.1285 14.2957 21.2119 14.7393 21.2119 15.1543C21.2119 15.5263 21.1841 15.884 21.1146 16.2131Z" fill="#A0A5B4"/>
</svg>
