<svg width="33" height="33" viewBox="0 0 33 33" fill="none" xmlns="http://www.w3.org/2000/svg">
<path d="M4.30943 16.7578C4.30943 14.9429 4.67371 13.2521 5.36338 11.7249L11.1569 27.8941C7.1057 25.9142 4.31072 21.6653 4.31072 16.7565L4.30943 16.7578ZM24.6858 16.1388C24.6858 17.2119 24.28 18.4077 23.7537 20.1395L22.5377 24.2643L18.1222 10.9408C18.8521 10.8999 19.5405 10.8168 19.5405 10.8168C20.1887 10.7336 20.1083 9.78589 19.4588 9.82681C19.4588 9.82681 17.4741 9.95088 16.2179 9.95088C15.0019 9.95088 13.0171 9.82681 13.0171 9.82681C12.369 9.78589 12.2873 10.7758 12.9355 10.8168C12.9355 10.8168 13.5435 10.8999 14.1917 10.9408L16.096 16.2206L13.4216 24.3461L9.00617 10.9408C9.73603 10.8999 10.3842 10.8168 10.3842 10.8168C11.0726 10.7336 10.9922 9.78589 10.3025 9.82681C10.3025 9.82681 8.35799 9.95088 7.06162 9.95088H6.29158C8.47985 6.61012 12.2069 4.38206 16.4603 4.38206C19.6208 4.38206 22.4962 5.62016 24.6845 7.64099C24.6028 7.60007 24.5626 7.60007 24.5224 7.60007C23.3064 7.60007 22.456 8.67318 22.456 9.82813C22.456 10.8181 23.064 11.684 23.672 12.7162C24.118 13.5411 24.6845 14.6142 24.6845 16.1401L24.6858 16.1388ZM13.0184 28.6373L16.6651 17.8296L20.4324 28.265C20.4324 28.3482 20.4726 28.3891 20.514 28.43C19.2579 28.8841 17.8811 29.1309 16.4629 29.1309C15.2884 29.1309 14.1126 28.9659 13.0197 28.636L13.0184 28.6373ZM27.1165 10.8181C28.0887 12.5921 28.6151 14.6129 28.6151 16.7578C28.6151 21.3367 26.1844 25.2965 22.5792 27.4823L26.3062 16.5097C26.9946 14.7766 27.1981 13.3339 27.1981 12.0958C27.1981 11.6417 27.1981 11.2312 27.1165 10.8181ZM16.4629 2.32031C24.2813 2.32031 30.6426 8.79594 30.6426 16.7578C30.6426 24.7197 24.2826 31.1953 16.4629 31.1953C8.64319 31.1953 2.2832 24.7197 2.2832 16.7578C2.2832 8.79594 8.64319 2.32031 16.4629 2.32031ZM16.4629 30.534C23.917 30.534 29.9944 24.3461 29.9944 16.7565C29.9944 9.16684 23.917 2.97896 16.4629 2.97896C9.00877 2.97896 2.93139 9.16684 2.93139 16.7565C2.93139 24.3461 9.00877 30.534 16.4629 30.534Z" fill="#A0A5B4"/>
</svg>
