<svg width="24" height="24" viewBox="0 0 24 24" fill="none" xmlns="http://www.w3.org/2000/svg">
<path d="M6.91908 8.0814C6.91908 6.73373 7.4544 5.44125 8.40727 4.48831C9.36015 3.53536 10.6525 3 12.0001 3C13.3476 3 14.64 3.53536 15.5929 4.48831C16.5458 5.44125 17.0811 6.73373 17.0811 8.0814C17.0811 9.42907 16.5458 10.7215 15.5929 11.6745C14.64 12.6274 13.3476 13.1628 12.0001 13.1628C10.6525 13.1628 9.36015 12.6274 8.40727 11.6745C7.4544 10.7215 6.91908 9.42907 6.91908 8.0814ZM11.8216 14.4981C11.8596 14.4924 11.898 14.4891 11.9365 14.4884H12.0637C12.1026 14.4884 12.1409 14.4916 12.1786 14.4981L18.6248 15.6319L18.6584 15.639C19.846 15.9129 21.122 16.6667 21.3703 18.1311L21.3739 18.1567L21.4746 18.9317V18.9335C21.7079 20.7089 20.3002 22 18.6381 22C18.6014 21.9993 18.5648 21.9964 18.5285 21.9912H5.36209C3.69994 21.9912 2.29139 20.6992 2.52556 18.9229L2.6263 18.1549L2.63072 18.1284C2.87814 16.6906 4.16474 15.8944 5.34972 15.6372L5.37534 15.6319L11.8216 14.4981Z" fill="#FF4206"/>
</svg>
