<svg width="49" height="49" viewBox="0 0 49 49" fill="none" xmlns="http://www.w3.org/2000/svg">
<path d="M12.848 12.848C13.6453 12.0507 14.9377 12.0507 15.735 12.848L36.1517 33.2647C36.949 34.062 36.949 35.3544 36.1517 36.1517C35.3544 36.949 34.062 36.949 33.2647 36.1517L12.848 15.735C12.0507 14.9377 12.0507 13.6453 12.848 12.848Z" fill="#FF4206"/>
<path d="M32.6667 14.2917C32.6667 13.1641 33.5808 12.25 34.7083 12.25C35.8359 12.25 36.75 13.1641 36.75 14.2917V34.7083C36.75 35.8359 35.8359 36.75 34.7083 36.75H14.2917C13.1641 36.75 12.25 35.8359 12.25 34.7083C12.25 33.5808 13.1641 32.6667 14.2917 32.6667H32.6667V14.2917Z" fill="#FF4206"/>
</svg>
