<svg width="34" height="34" viewBox="0 0 34 34" fill="none" xmlns="http://www.w3.org/2000/svg">
<path d="M2.03544 33.025C2.39709 33.4771 2.89435 33.7031 3.43681 33.7031C3.52722 33.7031 3.66284 33.7031 3.75325 33.6579L11.6642 32.2566C13.3368 32.799 15.0546 33.1155 16.8176 33.1155C25.7683 33.1155 33.0464 25.8374 33.0464 16.8867C33.0464 7.936 25.7683 0.703125 16.8176 0.703125C7.86695 0.703125 0.588867 7.98121 0.588867 16.9319C0.588867 18.9661 0.950511 20.9552 1.719 22.8538C2.21626 24.1648 2.93955 25.4305 3.75325 26.5607L1.76421 31.2168C1.53818 31.8045 1.62859 32.4826 2.03544 33.025ZM16.8176 4.31956C23.7793 4.31956 29.43 9.97025 29.43 16.9319C29.43 23.8935 23.7793 29.5442 16.8176 29.5442C15.3259 29.5442 13.8793 29.273 12.4327 28.7757C12.1163 28.6853 11.7998 28.6401 11.4834 28.6853L6.37517 29.5894L7.4601 27.0127C7.73133 26.3798 7.59572 25.6565 7.18887 25.1141C6.28476 24.0292 5.56147 22.8086 5.019 21.5429C4.43133 20.0963 4.1601 18.5593 4.1601 16.9319C4.20531 9.97025 9.85599 4.31956 16.8176 4.31956Z" fill="#FF4206"/>
</svg>
