<svg width="34" height="38" viewBox="0 0 34 38" fill="none" xmlns="http://www.w3.org/2000/svg">
<path d="M29.8127 15.4642C29.2456 15.4642 28.7191 15.6178 28.2495 15.865C27.6481 14.9198 26.5978 14.2868 25.3973 14.2868C24.8302 14.2868 24.3037 14.4403 23.8341 14.6876C23.2331 13.7423 22.1828 13.1093 20.9818 13.1093C20.6201 13.1093 20.2782 13.1814 19.9513 13.2869V10.4445C21.2418 9.41636 21.9959 7.87155 21.9959 6.19156C21.9959 3.18907 19.5529 0.746094 16.5504 0.746094H6.24723C3.24426 0.746094 0.801758 3.18954 0.801758 6.19156C0.801758 9.19359 3.24473 11.637 6.24723 11.637H13.181V21.9548L12.3422 21.205C11.38 20.3436 10.0852 19.9136 8.80465 20.0308C7.51934 20.1458 6.32635 20.7943 5.53181 21.8107C4.64825 22.9396 4.7043 24.5325 5.66557 25.5959L13.0345 33.7528C15.04 35.973 17.9059 37.2461 20.898 37.2461H22.6011C28.444 37.2461 33.1981 32.4925 33.1981 26.649V18.8496C33.1976 16.9831 31.6792 15.4642 29.8127 15.4642ZM19.641 6.19156C19.641 6.5853 19.5453 6.95643 19.4078 7.3092C18.805 6.3743 17.7594 5.75026 16.5664 5.75026C15.3593 5.75026 14.3057 6.39032 13.7061 7.34358C13.5601 6.98187 13.4593 6.59943 13.4593 6.19156C13.4593 4.48756 14.8459 3.10099 16.5499 3.10099C18.2539 3.10099 19.641 4.48756 19.641 6.19156ZM3.15666 6.19156C3.15666 4.48756 4.54322 3.10099 6.24723 3.10099H12.0756C11.4662 3.98031 11.1044 5.04331 11.1044 6.19156C11.1044 7.30967 11.4624 8.3835 12.0827 9.28213H6.24723C4.54322 9.2826 3.15666 7.89604 3.15666 6.19156ZM30.8427 26.65C30.8427 31.194 27.1455 34.8921 22.6006 34.8921H20.8975C18.5709 34.8921 16.3413 33.9021 14.7819 32.176L7.41337 24.0191C7.22121 23.8062 7.20991 23.4878 7.387 23.2627C7.7878 22.7498 8.36569 22.4347 9.01423 22.3773C9.6656 22.3141 10.2878 22.5266 10.7724 22.9603L13.5733 25.4669C13.9195 25.7749 14.4164 25.8531 14.8393 25.6647C15.2632 25.4749 15.5359 25.0543 15.5359 24.5895V9.13519C15.5359 8.56719 15.9979 8.10468 16.5664 8.10468C17.1349 8.10468 17.5969 8.56672 17.5969 9.13519V16.4942V21.6458C17.5969 22.2967 18.1239 22.8233 18.7744 22.8233C19.4248 22.8233 19.9518 22.2967 19.9518 21.6458V16.4947C19.9518 15.9267 20.4138 15.4642 20.9823 15.4642C21.5508 15.4642 22.0128 15.9262 22.0128 16.4947V17.6722V21.6463C22.0128 22.2972 22.5398 22.8237 23.1903 22.8237C23.8407 22.8237 24.3677 22.2972 24.3677 21.6463V17.6722C24.3677 17.1042 24.8297 16.6417 25.3982 16.6417C25.9667 16.6417 26.4287 17.1037 26.4287 17.6722V18.8496V21.6463C26.4287 22.2972 26.9557 22.8237 27.6062 22.8237C28.2566 22.8237 28.7836 22.2972 28.7836 21.6463V18.8496C28.7836 18.2816 29.2456 17.8191 29.8141 17.8191C30.3826 17.8191 30.8446 18.2811 30.8446 18.8496V26.65H30.8427Z" fill="#FF4206"/>
</svg>
