<svg width="190" height="20" viewBox="0 0 190 20" fill="none" xmlns="http://www.w3.org/2000/svg">
<path d="M42.32 0.655762H31.5172C29.2294 0.655762 27.374 2.47238 27.374 4.71231V19.3457H31.5172V12.029H42.32V19.3457H46.4631V4.71231C46.4631 2.47238 44.6077 0.655762 42.32 0.655762ZM42.32 7.97247H31.5172V4.71231H42.32V7.97247Z" fill="white"/>
<path d="M90.4143 0.655762H71.3252V4.71231H78.7982V19.3443H82.9413V4.71231H90.4143V0.655762Z" fill="white"/>
<path d="M50.605 0.655732V19.3443H54.7482V12.0275H65.5509C67.8387 12.0275 69.6941 10.2109 69.6941 7.971V4.71084C69.6941 2.47092 67.8387 0.654297 65.5509 0.654297H50.605V0.655732ZM65.5509 7.97244H54.7482V4.71228H65.5509V7.97244Z" fill="white"/>
<path d="M107.877 15.2892H97.0738V0.655762H92.9307V15.2892C92.9307 17.5291 94.7861 19.3457 97.0738 19.3457H112.02V0.655762H107.877V15.2892Z" fill="white"/>
<path d="M143.537 0.655762C141.249 0.655762 139.394 2.47238 139.394 4.71231V19.3457H158.481V15.2892H143.535V12.029H158.481V7.97247H143.535V4.71231H158.481V0.655762H143.535H143.537Z" fill="white"/>
<path d="M190 0.655762H185.857V19.3443H190V0.655762Z" fill="#FF4206"/>
<path d="M19.0891 12.029V15.2892H8.28636V4.71231H19.0876V7.97103H23.2294V4.71087C23.2308 2.47238 21.3769 0.655762 19.0891 0.655762H8.28636C5.99713 0.655762 4.14318 2.47238 4.14318 4.71231V15.2892L0 19.3443H19.0891C21.3769 19.3443 23.2308 17.5277 23.2323 15.2877V12.0276H19.0906L19.0891 12.029Z" fill="white"/>
<path d="M177.57 0.655762H166.768C164.48 0.655762 162.625 2.47238 162.625 4.71231V19.3457H166.768V12.029H177.57V19.3457H181.714V4.71231C181.714 2.47238 179.858 0.655762 177.57 0.655762ZM177.57 7.97247H166.768V4.71231H177.57V7.97247Z" fill="#FF4206"/>
<path d="M135.251 6.95797V4.71231C135.251 4.36219 135.205 4.02211 135.12 3.69781C134.662 1.94863 133.039 0.655762 131.109 0.655762H116.163V19.3443H120.306V12.0276H131.109V19.3443H135.252V13.0421C135.252 12.0821 134.911 11.2011 134.342 10.5066C134.193 10.3243 134.027 10.155 133.848 10C134.708 9.25673 135.252 8.17049 135.252 6.95797H135.251ZM131.109 7.97247H120.306V4.71231H131.109V7.97247Z" fill="white"/>
</svg>
